<svg id="svg" version="1.1" xmlns="http://www.w3.org/2000/svg" xmlns:xlink="http://www.w3.org/1999/xlink" width="400" height="400" viewBox="0, 0, 400,400"><g id="svgg"><path id="path0" d="M164.400 0.800 C 164.400 1.570,164.133 1.600,157.374 1.600 C 149.632 1.600,148.800 1.796,148.800 3.614 L 148.800 4.800 144.633 4.800 C 139.519 4.800,139.200 4.907,139.200 6.630 L 139.200 7.974 134.700 8.087 L 130.200 8.200 130.076 9.700 L 129.952 11.200 125.419 11.200 C 120.546 11.200,120.400 11.265,120.400 13.433 C 120.400 14.370,120.306 14.400,117.400 14.400 L 114.400 14.400 114.400 15.783 L 114.400 17.166 111.300 17.283 L 108.200 17.400 108.076 18.900 L 107.952 20.400 105.256 20.400 C 102.273 20.400,101.600 20.783,101.600 22.480 C 101.600 23.581,101.559 23.600,99.233 23.600 C 96.025 23.600,95.600 23.816,95.600 25.443 L 95.600 26.800 93.049 26.800 C 90.337 26.800,89.887 27.060,89.454 28.876 C 89.239 29.774,88.949 29.972,87.698 30.076 C 86.282 30.193,86.193 30.282,86.076 31.700 L 85.952 33.200 83.456 33.200 C 80.780 33.200,80.000 33.619,80.000 35.056 C 80.000 35.802,79.750 35.972,78.500 36.076 C 77.086 36.193,76.993 36.285,76.877 37.677 C 76.762 39.065,76.665 39.162,75.277 39.277 C 73.885 39.393,73.793 39.486,73.676 40.900 L 73.552 42.400 71.676 42.406 C 69.213 42.414,67.833 43.131,67.676 44.487 C 67.569 45.401,67.340 45.572,66.076 45.677 C 64.690 45.793,64.593 45.890,64.477 47.277 C 64.362 48.665,64.265 48.762,62.877 48.877 C 61.533 48.989,61.389 49.117,61.275 50.300 C 61.167 51.419,60.997 51.600,60.055 51.600 C 58.658 51.600,58.000 52.266,58.000 53.680 C 58.000 54.640,57.840 54.800,56.880 54.800 C 55.459 54.800,54.800 55.459,54.800 56.880 C 54.800 57.840,54.640 58.000,53.680 58.000 C 52.266 58.000,51.600 58.658,51.600 60.055 C 51.600 60.997,51.419 61.167,50.300 61.275 C 49.117 61.389,48.989 61.533,48.877 62.877 C 48.762 64.265,48.665 64.362,47.277 64.477 C 45.890 64.593,45.793 64.690,45.677 66.076 C 45.572 67.340,45.401 67.569,44.487 67.676 C 43.131 67.833,42.414 69.213,42.406 71.676 L 42.400 73.552 40.900 73.676 C 39.486 73.793,39.393 73.885,39.277 75.277 C 39.162 76.665,39.065 76.762,37.677 76.877 C 36.285 76.993,36.193 77.086,36.076 78.500 C 35.972 79.750,35.802 80.000,35.056 80.000 C 33.619 80.000,33.200 80.780,33.200 83.456 L 33.200 85.952 31.700 86.076 C 30.282 86.193,30.193 86.282,30.076 87.698 C 29.972 88.949,29.774 89.239,28.876 89.454 C 27.060 89.887,26.800 90.337,26.800 93.049 L 26.800 95.600 25.443 95.600 C 23.816 95.600,23.600 96.025,23.600 99.233 C 23.600 101.559,23.581 101.600,22.480 101.600 C 20.783 101.600,20.400 102.273,20.400 105.256 L 20.400 107.952 18.900 108.076 L 17.400 108.200 17.283 111.300 L 17.166 114.400 15.783 114.400 L 14.400 114.400 14.400 117.400 C 14.400 120.306,14.370 120.400,13.433 120.400 C 11.265 120.400,11.200 120.546,11.200 125.419 L 11.200 129.952 9.700 130.076 L 8.200 130.200 8.087 134.700 L 7.974 139.200 6.630 139.200 C 4.907 139.200,4.800 139.519,4.800 144.633 L 4.800 148.800 3.614 148.800 C 1.796 148.800,1.600 149.632,1.600 157.374 C 1.600 164.133,1.570 164.400,0.800 164.400 C 0.006 164.400,0.000 164.667,0.000 200.200 C 0.000 235.733,0.006 236.000,0.800 236.000 C 1.568 236.000,1.600 236.268,1.605 242.700 C 1.612 250.803,1.675 251.103,3.431 251.432 L 4.775 251.684 4.887 256.142 L 5.000 260.600 6.500 260.724 L 8.000 260.848 8.000 264.991 C 8.000 270.080,8.108 270.400,9.830 270.400 L 11.174 270.400 11.287 274.900 L 11.400 279.400 12.884 279.523 L 14.367 279.646 14.484 282.723 L 14.600 285.800 15.883 285.924 L 17.166 286.048 17.283 288.924 L 17.400 291.800 18.884 291.923 L 20.367 292.046 20.484 295.123 L 20.600 298.200 22.100 298.324 L 23.600 298.448 23.600 301.144 C 23.600 304.127,23.983 304.800,25.680 304.800 C 26.781 304.800,26.800 304.841,26.800 307.171 C 26.800 309.806,27.410 310.800,29.029 310.800 C 29.895 310.800,30.000 310.973,30.000 312.400 C 30.000 313.997,30.003 314.000,31.582 314.000 L 33.165 314.000 33.282 316.876 C 33.400 319.751,33.400 319.752,34.700 320.087 C 35.773 320.364,36.000 320.616,36.000 321.531 C 36.000 322.935,36.661 323.600,38.055 323.600 C 38.997 323.600,39.167 323.781,39.275 324.900 C 39.389 326.087,39.531 326.211,40.900 326.324 L 42.400 326.448 42.400 328.398 C 42.400 331.174,42.918 332.275,44.376 332.595 C 45.396 332.819,45.600 333.056,45.600 334.018 C 45.600 335.245,46.504 336.000,47.974 336.000 C 48.646 336.000,48.800 336.252,48.800 337.357 C 48.800 338.738,49.304 339.200,50.807 339.200 C 51.352 339.200,51.583 339.546,51.675 340.500 C 51.789 341.683,51.933 341.811,53.277 341.923 C 54.665 342.038,54.762 342.135,54.877 343.523 C 54.993 344.915,55.086 345.007,56.500 345.124 C 57.774 345.230,58.000 345.390,58.000 346.191 C 58.000 347.903,58.414 348.400,59.843 348.400 C 61.119 348.400,61.200 348.481,61.200 349.757 C 61.200 351.191,61.696 351.600,63.433 351.600 C 64.238 351.600,64.400 351.798,64.400 352.786 C 64.400 354.032,65.286 354.800,66.724 354.800 C 67.263 354.800,67.572 355.160,67.735 355.977 C 67.990 357.250,69.660 357.993,72.275 357.998 C 73.420 358.000,73.562 358.132,73.675 359.300 C 73.789 360.487,73.931 360.611,75.300 360.724 C 76.758 360.845,76.800 360.892,76.800 362.424 C 76.800 363.996,76.804 364.000,78.400 364.000 C 79.791 364.000,80.001 364.118,80.006 364.900 C 80.017 366.445,80.574 366.809,83.329 367.066 C 85.911 367.307,86.000 367.352,86.000 368.409 C 86.000 369.725,86.598 370.284,88.198 370.465 C 89.170 370.574,89.434 370.823,89.599 371.782 C 89.829 373.123,90.685 373.497,93.675 373.560 C 95.488 373.599,95.553 373.643,95.675 374.900 L 95.800 376.200 98.677 376.317 L 101.554 376.434 101.677 377.917 L 101.800 379.400 104.877 379.516 L 107.954 379.633 108.077 381.116 L 108.200 382.600 111.277 382.716 L 114.354 382.833 114.477 384.316 L 114.600 385.800 117.500 385.918 C 120.256 386.029,120.400 386.082,120.400 386.989 C 120.400 388.836,121.293 389.200,125.829 389.200 L 130.000 389.200 130.000 390.600 L 130.000 392.000 134.576 392.000 L 139.152 392.000 139.276 393.500 L 139.400 395.000 144.100 395.113 L 148.800 395.225 148.800 396.333 C 148.800 398.301,149.197 398.400,157.080 398.400 C 164.133 398.400,164.400 398.429,164.400 399.200 C 164.400 399.994,164.667 400.000,200.200 400.000 C 235.600 400.000,236.000 399.991,236.000 399.209 C 236.000 398.453,236.331 398.413,243.500 398.309 L 251.000 398.200 251.371 396.700 L 251.741 395.200 256.271 395.200 L 260.800 395.200 260.800 393.613 L 260.800 392.025 265.500 391.913 L 270.200 391.800 270.325 390.500 L 270.451 389.200 274.393 389.200 C 279.274 389.200,279.600 389.085,279.600 387.357 L 279.600 386.000 282.320 386.000 C 285.328 386.000,286.000 385.620,286.000 383.920 L 286.000 382.800 289.000 382.800 L 292.000 382.800 292.000 381.200 L 292.000 379.600 295.200 379.600 L 298.400 379.600 298.400 378.000 L 298.400 376.400 301.357 376.400 C 304.432 376.400,304.800 376.189,304.800 374.423 C 304.800 373.843,305.249 373.670,307.215 373.492 C 309.927 373.246,310.800 372.731,310.800 371.375 C 310.800 370.593,311.034 370.429,312.300 370.324 C 313.719 370.207,313.807 370.119,313.924 368.700 C 314.048 367.204,314.053 367.200,315.924 367.160 C 318.893 367.097,319.715 366.731,320.083 365.311 C 320.368 364.212,320.605 364.032,321.905 363.924 C 323.318 363.807,323.407 363.717,323.524 362.300 C 323.642 360.881,323.723 360.800,325.024 360.800 C 326.319 360.800,326.400 360.721,326.400 359.457 L 326.400 358.114 328.859 357.857 C 331.571 357.573,332.207 357.225,332.557 355.829 C 332.728 355.147,333.172 354.819,334.181 354.630 C 335.375 354.406,335.606 354.175,335.829 352.985 C 336.037 351.878,336.275 351.600,337.016 351.600 C 338.209 351.600,339.200 350.601,339.200 349.397 C 339.200 348.622,339.435 348.428,340.500 348.325 C 341.687 348.211,341.811 348.069,341.924 346.700 C 342.045 345.242,342.092 345.200,343.624 345.200 C 345.192 345.200,345.200 345.192,345.200 343.624 C 345.200 342.092,345.242 342.045,346.700 341.924 C 348.069 341.811,348.211 341.687,348.325 340.500 C 348.428 339.435,348.622 339.200,349.397 339.200 C 350.601 339.200,351.600 338.209,351.600 337.016 C 351.600 336.275,351.878 336.037,352.985 335.829 C 354.175 335.606,354.406 335.375,354.630 334.181 C 354.819 333.172,355.147 332.728,355.829 332.557 C 357.225 332.207,357.573 331.571,357.857 328.859 L 358.114 326.400 359.457 326.400 C 360.721 326.400,360.800 326.319,360.800 325.024 C 360.800 323.723,360.881 323.642,362.300 323.524 C 363.717 323.407,363.807 323.318,363.924 321.905 C 364.032 320.605,364.212 320.368,365.311 320.083 C 366.731 319.715,367.097 318.893,367.160 315.924 C 367.200 314.053,367.204 314.048,368.700 313.924 C 370.119 313.807,370.207 313.719,370.324 312.300 C 370.429 311.034,370.593 310.800,371.375 310.800 C 372.731 310.800,373.246 309.927,373.492 307.215 C 373.670 305.249,373.843 304.800,374.423 304.800 C 376.189 304.800,376.400 304.432,376.400 301.357 L 376.400 298.400 378.000 298.400 L 379.600 298.400 379.600 295.200 L 379.600 292.000 381.200 292.000 L 382.800 292.000 382.800 289.000 L 382.800 286.000 383.920 286.000 C 385.620 286.000,386.000 285.328,386.000 282.320 L 386.000 279.600 387.357 279.600 C 389.085 279.600,389.200 279.274,389.200 274.393 L 389.200 270.451 390.500 270.325 L 391.800 270.200 391.913 265.500 L 392.025 260.800 393.613 260.800 L 395.200 260.800 395.200 256.271 L 395.200 251.741 396.700 251.371 L 398.200 251.000 398.309 243.500 C 398.413 236.331,398.453 236.000,399.209 236.000 C 399.991 236.000,400.000 235.600,400.000 200.200 C 400.000 164.667,399.994 164.400,399.200 164.400 C 398.429 164.400,398.400 164.133,398.400 157.080 C 398.400 149.197,398.301 148.800,396.333 148.800 L 395.225 148.800 395.113 144.100 L 395.000 139.400 393.500 139.276 L 392.000 139.152 392.000 134.576 L 392.000 130.000 390.600 130.000 L 389.200 130.000 389.200 125.829 C 389.200 121.293,388.836 120.400,386.989 120.400 C 386.082 120.400,386.029 120.256,385.918 117.500 L 385.800 114.600 384.316 114.477 L 382.833 114.354 382.716 111.277 L 382.600 108.200 381.116 108.077 L 379.633 107.954 379.516 104.877 L 379.400 101.800 377.917 101.677 L 376.434 101.554 376.317 98.677 L 376.200 95.800 374.900 95.675 C 373.643 95.553,373.599 95.488,373.560 93.675 C 373.497 90.685,373.123 89.829,371.782 89.599 C 370.823 89.434,370.574 89.170,370.465 88.198 C 370.284 86.598,369.725 86.000,368.409 86.000 C 367.352 86.000,367.307 85.911,367.066 83.329 C 366.809 80.574,366.445 80.017,364.900 80.006 C 364.118 80.001,364.000 79.791,364.000 78.400 C 364.000 76.804,363.996 76.800,362.424 76.800 C 360.892 76.800,360.845 76.758,360.724 75.300 C 360.611 73.931,360.487 73.789,359.300 73.675 C 358.132 73.562,358.000 73.420,357.998 72.275 C 357.993 69.660,357.250 67.990,355.977 67.735 C 355.160 67.572,354.800 67.263,354.800 66.724 C 354.800 65.286,354.032 64.400,352.786 64.400 C 351.798 64.400,351.600 64.238,351.600 63.433 C 351.600 61.696,351.191 61.200,349.757 61.200 C 348.481 61.200,348.400 61.119,348.400 59.843 C 348.400 58.414,347.903 58.000,346.191 58.000 C 345.390 58.000,345.230 57.774,345.124 56.500 C 345.007 55.086,344.915 54.993,343.523 54.877 C 342.135 54.762,342.038 54.665,341.923 53.277 C 341.811 51.933,341.683 51.789,340.500 51.675 C 339.546 51.583,339.200 51.352,339.200 50.807 C 339.200 49.304,338.738 48.800,337.357 48.800 C 336.252 48.800,336.000 48.646,336.000 47.974 C 336.000 46.504,335.245 45.600,334.018 45.600 C 333.056 45.600,332.819 45.396,332.595 44.376 C 332.275 42.918,331.174 42.400,328.398 42.400 L 326.448 42.400 326.324 40.900 C 326.211 39.531,326.087 39.389,324.900 39.275 C 323.781 39.167,323.600 38.997,323.600 38.055 C 323.600 36.661,322.935 36.000,321.531 36.000 C 320.616 36.000,320.364 35.773,320.087 34.700 C 319.752 33.400,319.751 33.400,316.876 33.282 L 314.000 33.165 314.000 31.582 C 314.000 30.003,313.997 30.000,312.400 30.000 C 310.973 30.000,310.800 29.895,310.800 29.029 C 310.800 27.410,309.806 26.800,307.171 26.800 C 304.841 26.800,304.800 26.781,304.800 25.680 C 304.800 23.983,304.127 23.600,301.144 23.600 L 298.448 23.600 298.324 22.100 L 298.200 20.600 295.123 20.484 L 292.046 20.367 291.923 18.884 L 291.800 17.400 288.924 17.283 L 286.048 17.166 285.924 15.883 L 285.800 14.600 282.723 14.484 L 279.646 14.367 279.523 12.884 L 279.400 11.400 274.900 11.287 L 270.400 11.174 270.400 9.830 C 270.400 8.108,270.080 8.000,264.991 8.000 L 260.848 8.000 260.724 6.500 L 260.600 5.000 256.142 4.887 L 251.684 4.775 251.432 3.431 C 251.103 1.675,250.803 1.612,242.700 1.605 C 236.268 1.600,236.000 1.568,236.000 0.800 C 236.000 0.006,235.733 0.000,200.200 0.000 C 164.667 0.000,164.400 0.006,164.400 0.800 M111.406 86.429 C 116.218 88.792,121.034 92.544,122.235 94.868 C 122.550 95.478,123.152 96.297,123.573 96.689 C 123.993 97.080,124.740 98.480,125.233 99.800 C 125.725 101.120,126.474 102.668,126.896 103.241 C 127.388 103.909,127.854 105.654,128.199 108.121 C 128.494 110.233,128.969 113.005,129.254 114.281 C 129.924 117.273,129.924 126.727,129.254 129.719 C 128.969 130.995,128.496 133.752,128.203 135.846 C 127.817 138.615,127.401 140.055,126.680 141.127 C 126.134 141.937,125.384 143.544,125.012 144.698 C 124.641 145.851,124.110 146.931,123.832 147.098 C 123.553 147.264,123.014 147.885,122.632 148.477 C 117.053 157.136,106.222 160.884,91.629 159.206 C 84.035 158.333,74.083 150.880,71.781 144.342 C 71.443 143.384,70.736 141.970,70.209 141.200 C 69.554 140.243,69.114 138.788,68.818 136.600 C 68.580 134.840,68.113 132.410,67.780 131.200 C 66.999 128.359,66.619 119.689,67.141 116.600 C 68.984 105.690,69.259 104.591,71.068 100.915 C 72.065 98.889,73.146 97.011,73.470 96.742 C 73.794 96.473,74.388 95.611,74.790 94.827 C 75.193 94.042,75.947 93.040,76.467 92.600 C 85.070 85.319,87.709 84.401,99.600 84.553 L 107.800 84.658 111.406 86.429 M325.111 85.023 L 326.000 85.645 326.000 115.609 L 326.000 145.572 326.900 146.069 C 327.468 146.383,330.412 146.653,334.878 146.801 C 344.018 147.105,343.600 146.790,343.600 153.366 C 343.600 160.088,346.676 159.378,316.972 159.514 C 286.979 159.652,290.000 160.359,290.000 153.200 C 290.000 146.679,289.838 146.800,298.565 146.800 C 303.762 146.800,305.196 146.678,305.911 146.177 L 306.800 145.555 306.777 123.277 C 306.750 95.797,306.984 96.865,301.400 98.803 C 297.280 100.233,291.537 100.374,290.240 99.076 C 288.626 97.462,288.649 90.019,290.274 88.323 C 291.465 87.080,296.175 85.430,300.200 84.846 C 304.800 84.178,324.101 84.316,325.111 85.023 M96.523 97.568 C 95.821 97.745,94.683 98.364,93.993 98.945 C 93.303 99.525,92.513 100.000,92.237 100.000 C 91.697 100.000,91.508 100.334,89.640 104.600 C 87.776 108.857,87.620 110.164,87.610 121.645 C 87.597 135.511,89.021 141.724,92.789 144.247 C 93.565 144.767,94.615 145.492,95.123 145.860 C 96.585 146.919,100.466 146.821,101.876 145.691 C 102.494 145.195,103.568 144.497,104.262 144.139 C 105.647 143.425,105.894 143.028,107.340 139.200 C 109.183 134.318,109.354 132.809,109.336 121.600 C 109.319 110.344,109.265 109.920,107.087 103.908 C 106.084 101.142,105.392 100.000,104.716 100.000 C 104.504 100.000,103.581 99.466,102.665 98.814 C 100.862 97.530,98.546 97.060,96.523 97.568 M345.471 185.043 L 346.600 185.886 346.705 201.783 C 346.843 222.862,347.372 221.644,338.123 221.561 C 328.403 221.475,327.987 221.062,328.092 211.600 C 328.167 204.884,327.929 203.857,326.137 203.176 C 324.797 202.667,67.426 202.651,66.475 203.160 C 64.207 204.374,64.349 201.793,64.387 241.005 C 64.424 278.323,64.397 277.782,66.243 278.992 C 67.325 279.701,323.510 280.029,325.511 279.324 C 327.835 278.505,328.000 277.945,328.000 270.877 C 328.000 261.020,328.230 260.796,338.360 260.806 C 345.169 260.813,345.190 260.818,346.144 262.680 C 347.102 264.550,347.139 295.110,346.185 296.566 C 344.918 298.500,350.829 298.431,195.467 298.312 L 48.734 298.200 47.560 296.886 L 46.386 295.572 46.493 240.847 C 46.608 181.874,46.484 185.235,48.586 184.379 C 49.034 184.197,115.762 184.083,196.871 184.124 L 344.341 184.200 345.471 185.043 M99.811 206.878 C 101.810 207.789,102.000 208.788,102.000 218.398 L 102.000 227.236 103.009 228.246 L 104.019 229.255 242.109 229.198 C 403.884 229.131,380.958 228.886,382.186 230.693 C 383.313 232.352,383.768 247.853,382.772 250.708 C 381.877 253.275,393.238 253.078,241.616 253.157 C 114.884 253.223,103.372 253.282,102.716 253.876 C 102.067 254.463,101.999 255.407,101.994 263.962 C 101.991 269.153,101.856 273.600,101.694 273.844 C 100.103 276.249,84.491 276.412,83.025 274.040 C 82.611 273.370,82.740 209.809,83.158 208.710 C 83.954 206.616,84.789 206.400,92.070 206.400 C 96.407 206.400,99.132 206.568,99.811 206.878 " stroke="none" fill="#5bec4a" fill-rule="evenodd"></path><path id="path1" d="M89.778 84.790 C 88.886 84.978,86.636 85.894,84.778 86.825 C 81.805 88.316,80.262 89.388,76.467 92.600 C 75.947 93.040,75.193 94.042,74.790 94.827 C 74.388 95.611,73.794 96.473,73.470 96.742 C 73.146 97.011,72.065 98.889,71.068 100.915 C 69.259 104.591,68.984 105.690,67.141 116.600 C 66.619 119.689,66.999 128.359,67.780 131.200 C 68.113 132.410,68.580 134.840,68.818 136.600 C 69.114 138.788,69.554 140.243,70.209 141.200 C 70.736 141.970,71.443 143.384,71.781 144.342 C 73.194 148.355,79.434 154.555,84.550 157.027 C 91.636 160.452,104.447 160.627,111.613 157.397 C 115.877 155.475,120.572 151.674,122.632 148.477 C 123.014 147.885,123.553 147.264,123.832 147.098 C 124.110 146.931,124.641 145.851,125.012 144.698 C 125.384 143.544,126.134 141.937,126.680 141.127 C 127.401 140.055,127.817 138.615,128.203 135.846 C 128.496 133.752,128.969 130.995,129.254 129.719 C 129.924 126.727,129.924 117.273,129.254 114.281 C 128.969 113.005,128.494 110.233,128.199 108.121 C 127.854 105.654,127.388 103.909,126.896 103.241 C 126.474 102.668,125.725 101.120,125.233 99.800 C 124.740 98.480,123.993 97.080,123.573 96.689 C 123.152 96.297,122.550 95.478,122.235 94.868 C 121.034 92.544,116.218 88.792,111.406 86.429 L 107.800 84.658 99.600 84.553 C 95.090 84.496,90.670 84.602,89.778 84.790 M300.200 84.846 C 296.175 85.430,291.465 87.080,290.274 88.323 C 288.649 90.019,288.626 97.462,290.240 99.076 C 291.537 100.374,297.280 100.233,301.400 98.803 C 306.984 96.865,306.750 95.797,306.777 123.277 L 306.800 145.555 305.911 146.177 C 305.196 146.678,303.762 146.800,298.565 146.800 C 289.838 146.800,290.000 146.679,290.000 153.200 C 290.000 160.359,286.979 159.652,316.972 159.514 C 346.676 159.378,343.600 160.088,343.600 153.366 C 343.600 146.790,344.018 147.105,334.878 146.801 C 330.412 146.653,327.468 146.383,326.900 146.069 L 326.000 145.572 326.000 115.609 L 326.000 85.645 325.111 85.023 C 324.101 84.316,304.800 84.178,300.200 84.846 M102.665 98.814 C 103.581 99.466,104.504 100.000,104.716 100.000 C 105.392 100.000,106.084 101.142,107.087 103.908 C 109.265 109.920,109.319 110.344,109.336 121.600 C 109.354 132.809,109.183 134.318,107.340 139.200 C 105.894 143.028,105.647 143.425,104.262 144.139 C 103.568 144.497,102.494 145.195,101.876 145.691 C 100.466 146.821,96.585 146.919,95.123 145.860 C 94.615 145.492,93.565 144.767,92.789 144.247 C 89.021 141.724,87.597 135.511,87.610 121.645 C 87.620 110.164,87.776 108.857,89.640 104.600 C 91.508 100.334,91.697 100.000,92.237 100.000 C 92.513 100.000,93.303 99.525,93.993 98.945 C 96.437 96.888,99.888 96.836,102.665 98.814 M48.586 184.379 C 46.484 185.235,46.608 181.874,46.493 240.847 L 46.386 295.572 47.560 296.886 L 48.734 298.200 195.467 298.312 C 350.829 298.431,344.918 298.500,346.185 296.566 C 347.139 295.110,347.102 264.550,346.144 262.680 C 345.190 260.818,345.169 260.813,338.360 260.806 C 328.230 260.796,328.000 261.020,328.000 270.877 C 328.000 277.945,327.835 278.505,325.511 279.324 C 323.510 280.029,67.325 279.701,66.243 278.992 C 64.397 277.782,64.424 278.323,64.387 241.005 C 64.349 201.793,64.207 204.374,66.475 203.160 C 67.426 202.651,324.797 202.667,326.137 203.176 C 327.929 203.857,328.167 204.884,328.092 211.600 C 327.987 221.062,328.403 221.475,338.123 221.561 C 347.372 221.644,346.843 222.862,346.705 201.783 L 346.600 185.886 345.471 185.043 L 344.341 184.200 196.871 184.124 C 115.762 184.083,49.034 184.197,48.586 184.379 M84.464 207.040 C 83.961 207.393,83.373 208.144,83.158 208.710 C 82.740 209.809,82.611 273.370,83.025 274.040 C 84.491 276.412,100.103 276.249,101.694 273.844 C 101.856 273.600,101.991 269.153,101.994 263.962 C 101.999 255.407,102.067 254.463,102.716 253.876 C 103.372 253.282,114.884 253.223,241.616 253.157 C 393.238 253.078,381.877 253.275,382.772 250.708 C 383.768 247.853,383.313 232.352,382.186 230.693 C 380.958 228.886,403.884 229.131,242.109 229.198 L 104.019 229.255 103.009 228.246 L 102.000 227.236 102.000 218.398 C 102.000 208.788,101.810 207.789,99.811 206.878 C 98.097 206.097,85.622 206.229,84.464 207.040 " stroke="none" fill="#f3fbf2" fill-rule="evenodd"></path></g></svg>