<svg id="svg" version="1.1" xmlns="http://www.w3.org/2000/svg" xmlns:xlink="http://www.w3.org/1999/xlink" width="400" height="400" viewBox="0, 0, 400,400"><g id="svgg"><path id="path0" d="M190.301 100.419 C 188.816 100.592,186.206 101.185,184.501 101.736 C 182.795 102.288,180.165 102.941,178.656 103.189 C 177.145 103.436,174.918 104.169,173.700 104.819 C 172.483 105.469,171.168 106.000,170.777 106.000 C 170.386 106.000,168.926 106.597,167.533 107.326 C 166.140 108.056,164.370 108.902,163.600 109.208 C 162.203 109.762,159.133 111.707,154.605 114.907 C 150.793 117.602,142.514 125.083,141.200 127.020 C 140.870 127.507,139.822 128.871,138.871 130.053 C 135.573 134.148,134.993 134.944,133.694 137.166 C 132.975 138.395,131.911 140.390,131.329 141.600 C 130.748 142.810,129.954 144.213,129.565 144.717 C 129.177 145.221,128.472 146.829,128.000 148.291 C 127.528 149.752,126.880 151.320,126.561 151.774 C 125.817 152.833,125.329 154.662,124.805 158.357 C 124.182 162.761,123.215 164.649,121.120 165.556 C 120.174 165.965,118.990 166.862,118.488 167.550 L 117.576 168.800 112.622 168.800 L 107.667 168.800 106.400 170.400 L 105.133 172.000 101.570 172.000 L 98.007 172.000 97.104 173.395 C 96.263 174.692,96.054 174.790,94.119 174.795 C 92.333 174.799,91.935 174.947,91.319 175.837 C 90.923 176.407,90.254 177.172,89.830 177.537 C 89.407 177.902,88.628 178.650,88.101 179.200 C 87.573 179.750,86.969 180.380,86.758 180.600 C 86.547 180.820,85.120 182.221,83.587 183.714 C 82.054 185.206,80.800 186.572,80.800 186.750 C 80.800 186.927,80.367 187.269,79.838 187.510 C 79.309 187.751,78.573 188.461,78.203 189.087 C 77.833 189.713,76.989 190.536,76.327 190.916 C 75.665 191.296,75.038 191.934,74.933 192.334 C 74.829 192.734,74.204 193.379,73.546 193.768 C 72.887 194.157,72.165 194.879,71.940 195.372 C 71.716 195.865,70.996 196.585,70.340 196.972 C 69.685 197.359,68.951 198.109,68.710 198.638 C 68.469 199.167,68.112 199.600,67.918 199.600 C 66.850 199.600,65.600 201.632,65.600 203.366 C 65.600 204.534,65.375 205.350,64.962 205.684 C 62.692 207.519,62.400 207.978,62.400 209.715 C 62.400 211.277,62.227 211.605,60.800 212.752 L 59.200 214.038 59.194 218.919 C 59.187 224.161,59.161 224.262,57.500 225.318 L 56.400 226.018 56.400 238.936 L 56.400 251.853 57.800 253.092 L 59.200 254.332 59.200 259.347 L 59.200 264.362 60.800 265.648 C 62.227 266.795,62.400 267.123,62.400 268.685 C 62.400 270.422,62.692 270.881,64.962 272.716 C 65.364 273.041,65.599 273.855,65.599 274.916 C 65.597 276.295,65.845 276.854,66.965 278.000 C 67.718 278.770,68.772 279.850,69.308 280.400 C 69.844 280.950,71.344 282.435,72.641 283.700 C 73.938 284.965,75.450 286.462,76.000 287.027 C 76.550 287.592,77.136 288.177,77.301 288.327 C 77.467 288.477,78.127 289.140,78.768 289.800 C 79.409 290.460,80.862 291.892,81.997 292.982 C 83.131 294.072,84.228 295.278,84.433 295.661 C 84.638 296.045,85.329 296.667,85.969 297.045 C 86.608 297.423,87.325 298.156,87.561 298.674 C 87.797 299.192,88.436 299.786,88.982 299.993 C 89.527 300.200,90.384 301.004,90.886 301.780 C 91.706 303.045,91.985 303.191,93.600 303.201 C 95.677 303.214,95.920 303.344,97.147 305.100 C 98.052 306.397,98.063 306.400,101.518 306.400 L 104.982 306.400 106.445 308.000 L 107.908 309.600 112.738 309.600 C 116.678 309.600,117.664 309.718,118.084 310.238 C 118.368 310.589,118.997 311.309,119.482 311.838 L 120.364 312.800 209.520 312.800 C 295.385 312.800,298.700 312.773,299.338 312.069 C 300.380 310.917,300.320 298.414,299.269 297.462 C 298.593 296.850,292.097 296.800,213.935 296.800 L 129.334 296.800 128.048 295.200 L 126.762 293.600 121.829 293.600 L 116.895 293.600 115.827 292.200 L 114.759 290.800 111.213 290.800 L 107.667 290.800 106.400 289.200 C 105.240 287.735,104.972 287.600,103.228 287.600 C 101.344 287.600,100.000 286.800,100.000 285.678 C 100.000 285.425,99.550 284.924,99.000 284.563 C 98.450 284.203,96.425 282.299,94.500 280.333 C 92.575 278.368,90.596 276.363,90.102 275.880 C 81.351 267.311,81.600 267.607,81.600 265.769 C 81.600 264.230,81.422 263.895,80.000 262.752 C 78.573 261.605,78.400 261.277,78.400 259.715 C 78.400 257.978,78.108 257.519,75.838 255.684 C 75.316 255.262,75.200 254.265,75.200 250.184 C 75.200 244.854,75.265 245.050,72.860 243.104 C 72.103 242.491,72.000 242.004,72.000 239.038 L 72.000 235.667 73.600 234.400 L 75.200 233.133 75.200 228.182 C 75.200 224.133,75.316 223.138,75.838 222.716 C 78.108 220.881,78.400 220.422,78.400 218.685 C 78.400 217.123,78.573 216.795,80.000 215.648 C 81.435 214.495,81.600 214.179,81.600 212.579 L 81.600 210.795 91.603 200.797 L 101.605 190.800 103.369 190.800 C 104.949 190.800,105.265 190.633,106.400 189.200 L 107.667 187.600 111.228 187.600 L 114.789 187.600 115.847 186.000 C 118.131 182.550,122.079 184.083,122.541 188.600 C 122.676 189.920,123.235 192.260,123.785 193.800 C 124.334 195.340,124.789 197.230,124.796 198.000 C 124.813 199.761,125.761 203.373,126.509 204.525 C 126.821 205.006,127.476 206.605,127.964 208.078 C 128.452 209.551,129.189 211.186,129.602 211.712 C 130.015 212.237,130.664 213.444,131.044 214.393 C 131.424 215.343,132.290 216.982,132.967 218.036 C 133.645 219.089,134.682 220.727,135.271 221.676 C 138.799 227.358,148.927 237.842,154.360 241.436 C 155.328 242.076,156.392 242.780,156.725 243.000 C 157.058 243.220,158.426 244.128,159.765 245.018 C 161.104 245.909,162.830 246.879,163.600 247.175 C 164.370 247.471,165.658 248.151,166.462 248.685 C 167.266 249.219,168.972 249.930,170.252 250.264 C 171.533 250.598,173.305 251.294,174.190 251.810 C 175.076 252.325,177.330 253.017,179.200 253.348 C 181.070 253.678,183.669 254.322,184.975 254.779 C 190.146 256.585,232.213 257.353,233.738 255.669 C 234.320 255.025,234.400 253.609,234.400 243.897 C 234.400 234.394,234.488 232.770,235.029 232.229 C 235.589 231.668,239.055 231.600,267.167 231.600 C 297.184 231.600,298.707 231.565,299.338 230.869 C 300.394 229.702,300.332 210.824,299.269 209.862 C 298.601 209.258,295.801 209.200,267.242 209.200 C 246.435 209.200,235.688 209.061,235.174 208.786 C 233.997 208.156,233.956 151.725,235.131 150.662 C 235.799 150.058,238.619 150.000,267.451 150.000 C 291.487 150.000,299.155 149.885,299.520 149.520 C 300.411 148.629,300.180 129.487,299.269 128.662 C 298.601 128.058,295.791 128.000,267.097 128.000 C 239.049 128.000,235.589 127.932,235.029 127.371 C 234.484 126.826,234.400 125.054,234.400 114.033 C 234.400 102.229,234.348 101.277,233.669 100.662 C 232.868 99.937,196.203 99.732,190.301 100.419 " stroke="none" fill="#fbfcfb" fill-rule="evenodd"></path><path id="path1" d="M164.400 0.800 C 164.400 1.570,164.133 1.600,157.374 1.600 C 149.632 1.600,148.800 1.796,148.800 3.614 L 148.800 4.800 144.633 4.800 C 139.519 4.800,139.200 4.907,139.200 6.630 L 139.200 7.974 134.700 8.087 L 130.200 8.200 130.076 9.700 L 129.952 11.200 125.419 11.200 C 120.546 11.200,120.400 11.265,120.400 13.433 C 120.400 14.370,120.306 14.400,117.400 14.400 L 114.400 14.400 114.400 15.783 L 114.400 17.166 111.300 17.283 L 108.200 17.400 108.076 18.900 L 107.952 20.400 105.256 20.400 C 102.273 20.400,101.600 20.783,101.600 22.480 C 101.600 23.581,101.559 23.600,99.233 23.600 C 96.025 23.600,95.600 23.816,95.600 25.443 L 95.600 26.800 93.049 26.800 C 90.337 26.800,89.887 27.060,89.454 28.876 C 89.239 29.774,88.949 29.972,87.698 30.076 C 86.282 30.193,86.193 30.282,86.076 31.700 L 85.952 33.200 83.456 33.200 C 80.780 33.200,80.000 33.619,80.000 35.056 C 80.000 35.802,79.750 35.972,78.500 36.076 C 77.086 36.193,76.993 36.285,76.877 37.677 C 76.762 39.065,76.665 39.162,75.277 39.277 C 73.885 39.393,73.793 39.486,73.676 40.900 L 73.552 42.400 71.676 42.406 C 69.213 42.414,67.833 43.131,67.676 44.487 C 67.569 45.401,67.340 45.572,66.076 45.677 C 64.690 45.793,64.593 45.890,64.477 47.277 C 64.362 48.665,64.265 48.762,62.877 48.877 C 61.533 48.989,61.389 49.117,61.275 50.300 C 61.167 51.419,60.997 51.600,60.055 51.600 C 58.658 51.600,58.000 52.266,58.000 53.680 C 58.000 54.640,57.840 54.800,56.880 54.800 C 55.459 54.800,54.800 55.459,54.800 56.880 C 54.800 57.840,54.640 58.000,53.680 58.000 C 52.266 58.000,51.600 58.658,51.600 60.055 C 51.600 60.997,51.419 61.167,50.300 61.275 C 49.117 61.389,48.989 61.533,48.877 62.877 C 48.762 64.265,48.665 64.362,47.277 64.477 C 45.890 64.593,45.793 64.690,45.677 66.076 C 45.572 67.340,45.401 67.569,44.487 67.676 C 43.131 67.833,42.414 69.213,42.406 71.676 L 42.400 73.552 40.900 73.676 C 39.486 73.793,39.393 73.885,39.277 75.277 C 39.162 76.665,39.065 76.762,37.677 76.877 C 36.285 76.993,36.193 77.086,36.076 78.500 C 35.972 79.750,35.802 80.000,35.056 80.000 C 33.619 80.000,33.200 80.780,33.200 83.456 L 33.200 85.952 31.700 86.076 C 30.282 86.193,30.193 86.282,30.076 87.698 C 29.972 88.949,29.774 89.239,28.876 89.454 C 27.060 89.887,26.800 90.337,26.800 93.049 L 26.800 95.600 25.443 95.600 C 23.816 95.600,23.600 96.025,23.600 99.233 C 23.600 101.559,23.581 101.600,22.480 101.600 C 20.783 101.600,20.400 102.273,20.400 105.256 L 20.400 107.952 18.900 108.076 L 17.400 108.200 17.283 111.300 L 17.166 114.400 15.783 114.400 L 14.400 114.400 14.400 117.400 C 14.400 120.306,14.370 120.400,13.433 120.400 C 11.265 120.400,11.200 120.546,11.200 125.419 L 11.200 129.952 9.700 130.076 L 8.200 130.200 8.087 134.700 L 7.974 139.200 6.630 139.200 C 4.907 139.200,4.800 139.519,4.800 144.633 L 4.800 148.800 3.614 148.800 C 1.796 148.800,1.600 149.632,1.600 157.374 C 1.600 164.133,1.570 164.400,0.800 164.400 C 0.006 164.400,0.000 164.667,0.000 200.200 C 0.000 235.733,0.006 236.000,0.800 236.000 C 1.568 236.000,1.600 236.268,1.605 242.700 C 1.612 250.803,1.675 251.103,3.431 251.432 L 4.775 251.684 4.887 256.142 L 5.000 260.600 6.500 260.724 L 8.000 260.848 8.000 264.991 C 8.000 270.080,8.108 270.400,9.830 270.400 L 11.174 270.400 11.287 274.900 L 11.400 279.400 12.884 279.523 L 14.367 279.646 14.484 282.723 L 14.600 285.800 15.883 285.924 L 17.166 286.048 17.283 288.924 L 17.400 291.800 18.884 291.923 L 20.367 292.046 20.484 295.123 L 20.600 298.200 22.100 298.324 L 23.600 298.448 23.600 301.144 C 23.600 304.127,23.983 304.800,25.680 304.800 C 26.781 304.800,26.800 304.841,26.800 307.171 C 26.800 309.806,27.410 310.800,29.029 310.800 C 29.895 310.800,30.000 310.973,30.000 312.400 C 30.000 313.997,30.003 314.000,31.582 314.000 L 33.165 314.000 33.282 316.876 C 33.400 319.751,33.400 319.752,34.700 320.087 C 35.773 320.364,36.000 320.616,36.000 321.531 C 36.000 322.935,36.661 323.600,38.055 323.600 C 38.997 323.600,39.167 323.781,39.275 324.900 C 39.389 326.087,39.531 326.211,40.900 326.324 L 42.400 326.448 42.400 328.398 C 42.400 331.174,42.918 332.275,44.376 332.595 C 45.396 332.819,45.600 333.056,45.600 334.018 C 45.600 335.245,46.504 336.000,47.974 336.000 C 48.646 336.000,48.800 336.252,48.800 337.357 C 48.800 338.738,49.304 339.200,50.807 339.200 C 51.352 339.200,51.583 339.546,51.675 340.500 C 51.789 341.683,51.933 341.811,53.277 341.923 C 54.665 342.038,54.762 342.135,54.877 343.523 C 54.993 344.915,55.086 345.007,56.500 345.124 C 57.774 345.230,58.000 345.390,58.000 346.191 C 58.000 347.903,58.414 348.400,59.843 348.400 C 61.119 348.400,61.200 348.481,61.200 349.757 C 61.200 351.191,61.696 351.600,63.433 351.600 C 64.238 351.600,64.400 351.798,64.400 352.786 C 64.400 354.032,65.286 354.800,66.724 354.800 C 67.263 354.800,67.572 355.160,67.735 355.977 C 67.990 357.250,69.660 357.993,72.275 357.998 C 73.420 358.000,73.562 358.132,73.675 359.300 C 73.789 360.487,73.931 360.611,75.300 360.724 C 76.758 360.845,76.800 360.892,76.800 362.424 C 76.800 363.996,76.804 364.000,78.400 364.000 C 79.791 364.000,80.001 364.118,80.006 364.900 C 80.017 366.445,80.574 366.809,83.329 367.066 C 85.911 367.307,86.000 367.352,86.000 368.409 C 86.000 369.725,86.598 370.284,88.198 370.465 C 89.170 370.574,89.434 370.823,89.599 371.782 C 89.829 373.123,90.685 373.497,93.675 373.560 C 95.488 373.599,95.553 373.643,95.675 374.900 L 95.800 376.200 98.677 376.317 L 101.554 376.434 101.677 377.917 L 101.800 379.400 104.877 379.516 L 107.954 379.633 108.077 381.116 L 108.200 382.600 111.277 382.716 L 114.354 382.833 114.477 384.316 L 114.600 385.800 117.500 385.918 C 120.256 386.029,120.400 386.082,120.400 386.989 C 120.400 388.836,121.293 389.200,125.829 389.200 L 130.000 389.200 130.000 390.600 L 130.000 392.000 134.576 392.000 L 139.152 392.000 139.276 393.500 L 139.400 395.000 144.100 395.113 L 148.800 395.225 148.800 396.333 C 148.800 398.301,149.197 398.400,157.080 398.400 C 164.133 398.400,164.400 398.429,164.400 399.200 C 164.400 399.994,164.667 400.000,200.200 400.000 C 235.600 400.000,236.000 399.991,236.000 399.209 C 236.000 398.453,236.331 398.413,243.500 398.309 L 251.000 398.200 251.371 396.700 L 251.741 395.200 256.271 395.200 L 260.800 395.200 260.800 393.613 L 260.800 392.025 265.500 391.913 L 270.200 391.800 270.325 390.500 L 270.451 389.200 274.393 389.200 C 279.274 389.200,279.600 389.085,279.600 387.357 L 279.600 386.000 282.320 386.000 C 285.328 386.000,286.000 385.620,286.000 383.920 L 286.000 382.800 289.000 382.800 L 292.000 382.800 292.000 381.200 L 292.000 379.600 295.200 379.600 L 298.400 379.600 298.400 378.000 L 298.400 376.400 301.357 376.400 C 304.432 376.400,304.800 376.189,304.800 374.423 C 304.800 373.843,305.249 373.670,307.215 373.492 C 309.927 373.246,310.800 372.731,310.800 371.375 C 310.800 370.593,311.034 370.429,312.300 370.324 C 313.719 370.207,313.807 370.119,313.924 368.700 C 314.048 367.204,314.053 367.200,315.924 367.160 C 318.893 367.097,319.715 366.731,320.083 365.311 C 320.368 364.212,320.605 364.032,321.905 363.924 C 323.318 363.807,323.407 363.717,323.524 362.300 C 323.642 360.881,323.723 360.800,325.024 360.800 C 326.319 360.800,326.400 360.721,326.400 359.457 L 326.400 358.114 328.859 357.857 C 331.571 357.573,332.207 357.225,332.557 355.829 C 332.728 355.147,333.172 354.819,334.181 354.630 C 335.375 354.406,335.606 354.175,335.829 352.985 C 336.037 351.878,336.275 351.600,337.016 351.600 C 338.209 351.600,339.200 350.601,339.200 349.397 C 339.200 348.622,339.435 348.428,340.500 348.325 C 341.687 348.211,341.811 348.069,341.924 346.700 C 342.045 345.242,342.092 345.200,343.624 345.200 C 345.192 345.200,345.200 345.192,345.200 343.624 C 345.200 342.092,345.242 342.045,346.700 341.924 C 348.069 341.811,348.211 341.687,348.325 340.500 C 348.428 339.435,348.622 339.200,349.397 339.200 C 350.601 339.200,351.600 338.209,351.600 337.016 C 351.600 336.275,351.878 336.037,352.985 335.829 C 354.175 335.606,354.406 335.375,354.630 334.181 C 354.819 333.172,355.147 332.728,355.829 332.557 C 357.225 332.207,357.573 331.571,357.857 328.859 L 358.114 326.400 359.457 326.400 C 360.721 326.400,360.800 326.319,360.800 325.024 C 360.800 323.723,360.881 323.642,362.300 323.524 C 363.717 323.407,363.807 323.318,363.924 321.905 C 364.032 320.605,364.212 320.368,365.311 320.083 C 366.731 319.715,367.097 318.893,367.160 315.924 C 367.200 314.053,367.204 314.048,368.700 313.924 C 370.119 313.807,370.207 313.719,370.324 312.300 C 370.429 311.034,370.593 310.800,371.375 310.800 C 372.731 310.800,373.246 309.927,373.492 307.215 C 373.670 305.249,373.843 304.800,374.423 304.800 C 376.189 304.800,376.400 304.432,376.400 301.357 L 376.400 298.400 378.000 298.400 L 379.600 298.400 379.600 295.200 L 379.600 292.000 381.200 292.000 L 382.800 292.000 382.800 289.000 L 382.800 286.000 383.920 286.000 C 385.620 286.000,386.000 285.328,386.000 282.320 L 386.000 279.600 387.357 279.600 C 389.085 279.600,389.200 279.274,389.200 274.393 L 389.200 270.451 390.500 270.325 L 391.800 270.200 391.913 265.500 L 392.025 260.800 393.613 260.800 L 395.200 260.800 395.200 256.271 L 395.200 251.741 396.700 251.371 L 398.200 251.000 398.309 243.500 C 398.413 236.331,398.453 236.000,399.209 236.000 C 399.991 236.000,400.000 235.600,400.000 200.200 C 400.000 164.667,399.994 164.400,399.200 164.400 C 398.429 164.400,398.400 164.133,398.400 157.080 C 398.400 149.197,398.301 148.800,396.333 148.800 L 395.225 148.800 395.113 144.100 L 395.000 139.400 393.500 139.276 L 392.000 139.152 392.000 134.576 L 392.000 130.000 390.600 130.000 L 389.200 130.000 389.200 125.829 C 389.200 121.293,388.836 120.400,386.989 120.400 C 386.082 120.400,386.029 120.256,385.918 117.500 L 385.800 114.600 384.316 114.477 L 382.833 114.354 382.716 111.277 L 382.600 108.200 381.116 108.077 L 379.633 107.954 379.516 104.877 L 379.400 101.800 377.917 101.677 L 376.434 101.554 376.317 98.677 L 376.200 95.800 374.900 95.675 C 373.643 95.553,373.599 95.488,373.560 93.675 C 373.497 90.685,373.123 89.829,371.782 89.599 C 370.823 89.434,370.574 89.170,370.465 88.198 C 370.284 86.598,369.725 86.000,368.409 86.000 C 367.352 86.000,367.307 85.911,367.066 83.329 C 366.809 80.574,366.445 80.017,364.900 80.006 C 364.118 80.001,364.000 79.791,364.000 78.400 C 364.000 76.804,363.996 76.800,362.424 76.800 C 360.892 76.800,360.845 76.758,360.724 75.300 C 360.611 73.931,360.487 73.789,359.300 73.675 C 358.132 73.562,358.000 73.420,357.998 72.275 C 357.993 69.660,357.250 67.990,355.977 67.735 C 355.160 67.572,354.800 67.263,354.800 66.724 C 354.800 65.286,354.032 64.400,352.786 64.400 C 351.798 64.400,351.600 64.238,351.600 63.433 C 351.600 61.696,351.191 61.200,349.757 61.200 C 348.481 61.200,348.400 61.119,348.400 59.843 C 348.400 58.414,347.903 58.000,346.191 58.000 C 345.390 58.000,345.230 57.774,345.124 56.500 C 345.007 55.086,344.915 54.993,343.523 54.877 C 342.135 54.762,342.038 54.665,341.923 53.277 C 341.811 51.933,341.683 51.789,340.500 51.675 C 339.546 51.583,339.200 51.352,339.200 50.807 C 339.200 49.304,338.738 48.800,337.357 48.800 C 336.252 48.800,336.000 48.646,336.000 47.974 C 336.000 46.504,335.245 45.600,334.018 45.600 C 333.056 45.600,332.819 45.396,332.595 44.376 C 332.275 42.918,331.174 42.400,328.398 42.400 L 326.448 42.400 326.324 40.900 C 326.211 39.531,326.087 39.389,324.900 39.275 C 323.781 39.167,323.600 38.997,323.600 38.055 C 323.600 36.661,322.935 36.000,321.531 36.000 C 320.616 36.000,320.364 35.773,320.087 34.700 C 319.752 33.400,319.751 33.400,316.876 33.282 L 314.000 33.165 314.000 31.582 C 314.000 30.003,313.997 30.000,312.400 30.000 C 310.973 30.000,310.800 29.895,310.800 29.029 C 310.800 27.410,309.806 26.800,307.171 26.800 C 304.841 26.800,304.800 26.781,304.800 25.680 C 304.800 23.983,304.127 23.600,301.144 23.600 L 298.448 23.600 298.324 22.100 L 298.200 20.600 295.123 20.484 L 292.046 20.367 291.923 18.884 L 291.800 17.400 288.924 17.283 L 286.048 17.166 285.924 15.883 L 285.800 14.600 282.723 14.484 L 279.646 14.367 279.523 12.884 L 279.400 11.400 274.900 11.287 L 270.400 11.174 270.400 9.830 C 270.400 8.108,270.080 8.000,264.991 8.000 L 260.848 8.000 260.724 6.500 L 260.600 5.000 256.142 4.887 L 251.684 4.775 251.432 3.431 C 251.103 1.675,250.803 1.612,242.700 1.605 C 236.268 1.600,236.000 1.568,236.000 0.800 C 236.000 0.006,235.733 0.000,200.200 0.000 C 164.667 0.000,164.400 0.006,164.400 0.800 M233.669 100.662 C 234.348 101.277,234.400 102.229,234.400 114.033 C 234.400 125.054,234.484 126.826,235.029 127.371 C 235.589 127.932,239.049 128.000,267.097 128.000 C 295.791 128.000,298.601 128.058,299.269 128.662 C 300.180 129.487,300.411 148.629,299.520 149.520 C 299.155 149.885,291.487 150.000,267.451 150.000 C 238.619 150.000,235.799 150.058,235.131 150.662 C 233.956 151.725,233.997 208.156,235.174 208.786 C 235.688 209.061,246.435 209.200,267.242 209.200 C 295.801 209.200,298.601 209.258,299.269 209.862 C 300.332 210.824,300.394 229.702,299.338 230.869 C 298.707 231.565,297.184 231.600,267.167 231.600 C 239.055 231.600,235.589 231.668,235.029 232.229 C 234.488 232.770,234.400 234.394,234.400 243.897 C 234.400 253.609,234.320 255.025,233.738 255.669 C 232.213 257.353,190.146 256.585,184.975 254.779 C 183.669 254.322,181.070 253.678,179.200 253.348 C 177.330 253.017,175.076 252.325,174.190 251.810 C 173.305 251.294,171.533 250.598,170.252 250.264 C 168.972 249.930,167.266 249.219,166.462 248.685 C 165.658 248.151,164.370 247.471,163.600 247.175 C 162.830 246.879,161.104 245.909,159.765 245.018 C 158.426 244.128,157.058 243.220,156.725 243.000 C 156.392 242.780,155.328 242.076,154.360 241.436 C 148.927 237.842,138.799 227.358,135.271 221.676 C 134.682 220.727,133.645 219.089,132.967 218.036 C 132.290 216.982,131.424 215.343,131.044 214.393 C 130.664 213.444,130.015 212.237,129.602 211.712 C 129.189 211.186,128.452 209.551,127.964 208.078 C 127.476 206.605,126.821 205.006,126.509 204.525 C 125.761 203.373,124.813 199.761,124.796 198.000 C 124.789 197.230,124.334 195.340,123.785 193.800 C 123.235 192.260,122.676 189.920,122.541 188.600 C 122.079 184.083,118.131 182.550,115.847 186.000 L 114.789 187.600 111.228 187.600 L 107.667 187.600 106.400 189.200 C 105.265 190.633,104.949 190.800,103.369 190.800 L 101.605 190.800 91.603 200.797 L 81.600 210.795 81.600 212.579 C 81.600 214.179,81.435 214.495,80.000 215.648 C 78.573 216.795,78.400 217.123,78.400 218.685 C 78.400 220.422,78.108 220.881,75.838 222.716 C 75.316 223.138,75.200 224.133,75.200 228.182 L 75.200 233.133 73.600 234.400 L 72.000 235.667 72.000 239.038 C 72.000 242.004,72.103 242.491,72.860 243.104 C 75.265 245.050,75.200 244.854,75.200 250.184 C 75.200 254.265,75.316 255.262,75.838 255.684 C 78.108 257.519,78.400 257.978,78.400 259.715 C 78.400 261.277,78.573 261.605,80.000 262.752 C 81.422 263.895,81.600 264.230,81.600 265.769 C 81.600 267.607,81.351 267.311,90.102 275.880 C 90.596 276.363,92.575 278.368,94.500 280.333 C 96.425 282.299,98.450 284.203,99.000 284.563 C 99.550 284.924,100.000 285.425,100.000 285.678 C 100.000 286.800,101.344 287.600,103.228 287.600 C 104.972 287.600,105.240 287.735,106.400 289.200 L 107.667 290.800 111.213 290.800 L 114.759 290.800 115.827 292.200 L 116.895 293.600 121.829 293.600 L 126.762 293.600 128.048 295.200 L 129.334 296.800 213.935 296.800 C 292.097 296.800,298.593 296.850,299.269 297.462 C 300.320 298.414,300.380 310.917,299.338 312.069 C 298.700 312.773,295.385 312.800,209.520 312.800 L 120.364 312.800 119.482 311.838 C 118.997 311.309,118.368 310.589,118.084 310.238 C 117.664 309.718,116.678 309.600,112.738 309.600 L 107.908 309.600 106.445 308.000 L 104.982 306.400 101.518 306.400 C 98.063 306.400,98.052 306.397,97.147 305.100 C 95.920 303.344,95.677 303.214,93.600 303.201 C 91.985 303.191,91.706 303.045,90.886 301.780 C 90.384 301.004,89.527 300.200,88.982 299.993 C 88.436 299.786,87.797 299.192,87.561 298.674 C 87.325 298.156,86.608 297.423,85.969 297.045 C 85.329 296.667,84.638 296.045,84.433 295.661 C 84.228 295.278,83.131 294.072,81.997 292.982 C 80.862 291.892,79.409 290.460,78.768 289.800 C 78.127 289.140,77.467 288.477,77.301 288.327 C 77.136 288.177,76.550 287.592,76.000 287.027 C 75.450 286.462,73.938 284.965,72.641 283.700 C 71.344 282.435,69.844 280.950,69.308 280.400 C 68.772 279.850,67.718 278.770,66.965 278.000 C 65.845 276.854,65.597 276.295,65.599 274.916 C 65.599 273.855,65.364 273.041,64.962 272.716 C 62.692 270.881,62.400 270.422,62.400 268.685 C 62.400 267.123,62.227 266.795,60.800 265.648 L 59.200 264.362 59.200 259.347 L 59.200 254.332 57.800 253.092 L 56.400 251.853 56.400 238.936 L 56.400 226.018 57.500 225.318 C 59.161 224.262,59.187 224.161,59.194 218.919 L 59.200 214.038 60.800 212.752 C 62.227 211.605,62.400 211.277,62.400 209.715 C 62.400 207.978,62.692 207.519,64.962 205.684 C 65.375 205.350,65.600 204.534,65.600 203.366 C 65.600 201.632,66.850 199.600,67.918 199.600 C 68.112 199.600,68.469 199.167,68.710 198.638 C 68.951 198.109,69.685 197.359,70.340 196.972 C 70.996 196.585,71.716 195.865,71.940 195.372 C 72.165 194.879,72.887 194.157,73.546 193.768 C 74.204 193.379,74.829 192.734,74.933 192.334 C 75.038 191.934,75.665 191.296,76.327 190.916 C 76.989 190.536,77.833 189.713,78.203 189.087 C 78.573 188.461,79.309 187.751,79.838 187.510 C 80.367 187.269,80.800 186.927,80.800 186.750 C 80.800 186.572,82.054 185.206,83.587 183.714 C 85.120 182.221,86.547 180.820,86.758 180.600 C 86.969 180.380,87.573 179.750,88.101 179.200 C 88.628 178.650,89.407 177.902,89.830 177.537 C 90.254 177.172,90.923 176.407,91.319 175.837 C 91.935 174.947,92.333 174.799,94.119 174.795 C 96.054 174.790,96.263 174.692,97.104 173.395 L 98.007 172.000 101.570 172.000 L 105.133 172.000 106.400 170.400 L 107.667 168.800 112.622 168.800 L 117.576 168.800 118.488 167.550 C 118.990 166.862,120.174 165.965,121.120 165.556 C 123.215 164.649,124.182 162.761,124.805 158.357 C 125.329 154.662,125.817 152.833,126.561 151.774 C 126.880 151.320,127.528 149.752,128.000 148.291 C 128.472 146.829,129.177 145.221,129.565 144.717 C 129.954 144.213,130.748 142.810,131.329 141.600 C 131.911 140.390,132.975 138.395,133.694 137.166 C 134.993 134.944,135.573 134.148,138.871 130.053 C 139.822 128.871,140.870 127.507,141.200 127.020 C 142.514 125.083,150.793 117.602,154.605 114.907 C 159.133 111.707,162.203 109.762,163.600 109.208 C 164.370 108.902,166.140 108.056,167.533 107.326 C 168.926 106.597,170.386 106.000,170.777 106.000 C 171.168 106.000,172.483 105.469,173.700 104.819 C 174.918 104.169,177.145 103.436,178.656 103.189 C 180.165 102.941,182.795 102.288,184.501 101.736 C 189.143 100.236,191.270 100.110,212.969 100.053 C 231.034 100.005,233.007 100.063,233.669 100.662 " stroke="none" fill="#5cec4c" fill-rule="evenodd"></path></g></svg>