<svg id="svg" version="1.1" xmlns="http://www.w3.org/2000/svg" xmlns:xlink="http://www.w3.org/1999/xlink" width="400" height="400" viewBox="0, 0, 400,400"><g id="svgg"><path id="path0" d="M197.674 23.154 C 197.194 24.008,196.360 24.996,195.821 25.349 C 195.283 25.702,194.554 26.598,194.202 27.340 C 193.850 28.082,193.120 28.890,192.581 29.136 C 192.025 29.389,191.600 29.923,191.600 30.367 C 191.600 30.798,190.877 31.986,189.994 33.007 C 189.111 34.027,188.119 35.383,187.790 36.019 C 187.461 36.656,186.834 37.368,186.397 37.602 C 185.960 37.835,185.234 38.750,184.783 39.633 C 184.333 40.516,183.694 41.342,183.365 41.469 C 183.035 41.595,182.405 42.405,181.965 43.269 C 181.524 44.132,180.894 44.942,180.565 45.069 C 180.235 45.195,179.600 46.016,179.152 46.893 C 178.705 47.770,177.723 49.104,176.970 49.857 C 174.513 52.314,175.164 52.688,182.200 52.862 C 188.970 53.029,190.406 53.585,190.873 56.220 C 191.653 60.610,191.206 186.148,190.405 187.914 C 188.786 191.481,195.175 191.181,120.554 191.191 L 54.908 191.200 53.805 190.333 C 52.117 189.005,51.600 187.288,51.600 183.006 L 51.600 179.187 50.217 178.528 L 48.834 177.868 47.117 179.355 C 46.173 180.173,44.545 181.400,43.500 182.081 C 42.455 182.762,41.600 183.468,41.600 183.650 C 41.600 183.831,41.018 184.281,40.306 184.649 C 39.039 185.304,36.770 187.094,33.395 190.100 C 32.468 190.925,31.517 191.600,31.280 191.600 C 31.043 191.600,30.030 192.275,29.030 193.100 C 28.030 193.925,26.202 195.410,24.969 196.400 C 21.878 198.881,19.600 201.111,19.600 201.657 C 19.600 202.345,26.240 208.400,26.995 208.400 C 27.401 208.400,31.721 211.480,33.747 213.215 C 35.277 214.524,36.420 215.346,40.407 218.000 C 43.332 219.947,45.735 221.817,47.053 223.172 C 48.300 224.453,48.489 224.519,49.894 224.172 L 51.400 223.800 51.609 218.000 C 51.826 212.003,52.097 210.938,53.692 209.821 C 54.484 209.266,61.589 209.200,120.589 209.201 C 195.166 209.201,188.542 208.899,190.300 212.385 L 191.200 214.170 191.200 276.429 C 191.200 310.672,191.083 339.545,190.939 340.591 C 190.550 343.433,189.105 343.980,181.949 343.991 C 175.821 344.001,174.990 344.312,176.007 346.214 C 176.298 346.756,176.678 347.200,176.853 347.200 C 177.027 347.200,177.875 348.235,178.736 349.500 C 179.598 350.765,180.685 352.143,181.151 352.562 C 181.618 352.981,182.000 353.560,182.000 353.849 C 182.000 354.137,182.585 355.006,183.300 355.779 C 186.553 359.296,191.600 365.912,191.600 366.661 C 191.600 366.947,192.059 367.482,192.620 367.850 C 193.182 368.218,193.923 369.064,194.268 369.731 C 194.612 370.397,195.458 371.512,196.147 372.208 C 196.836 372.904,197.670 373.854,198.000 374.318 C 199.117 375.892,201.462 375.920,202.294 374.371 C 202.682 373.647,203.675 372.375,204.500 371.543 C 205.325 370.712,206.000 369.768,206.000 369.445 C 206.000 369.122,206.475 368.484,207.056 368.028 C 207.636 367.571,208.519 366.316,209.018 365.239 C 209.517 364.163,210.184 363.128,210.500 362.941 C 210.816 362.753,211.403 362.060,211.805 361.400 C 212.207 360.740,213.059 359.660,213.699 359.000 C 215.172 357.480,216.445 355.613,217.983 352.715 C 218.650 351.458,219.557 350.237,219.997 350.002 C 220.437 349.766,221.155 348.872,221.592 348.016 C 222.029 347.159,222.760 346.340,223.216 346.195 C 226.301 345.216,222.770 344.080,216.487 344.030 C 212.187 343.995,210.188 343.347,209.597 341.793 C 209.340 341.117,209.200 318.312,209.200 277.158 C 209.200 205.551,208.940 211.435,212.174 209.893 C 214.293 208.883,335.669 208.812,337.108 209.821 C 338.730 210.957,338.979 211.979,339.193 218.385 L 339.400 224.569 340.800 224.859 C 342.358 225.182,342.891 224.927,345.400 222.663 C 346.280 221.868,347.124 221.214,347.276 221.209 C 347.427 221.204,348.362 220.525,349.354 219.700 C 350.345 218.875,351.993 217.570,353.015 216.800 C 355.478 214.945,359.781 211.573,361.927 209.815 C 362.877 209.037,363.827 208.400,364.039 208.400 C 364.751 208.400,371.200 202.285,371.200 201.610 C 371.200 200.905,364.542 194.800,363.773 194.800 C 363.608 194.800,362.519 194.080,361.354 193.200 C 360.188 192.320,359.112 191.600,358.962 191.600 C 358.709 191.600,356.062 189.598,353.080 187.150 C 352.376 186.572,350.270 185.064,348.400 183.799 C 346.530 182.534,344.366 180.895,343.591 180.157 C 342.269 178.898,342.088 178.840,340.691 179.226 L 339.200 179.638 339.200 183.232 C 339.200 187.276,338.657 189.025,336.995 190.333 L 335.892 191.200 275.031 191.200 L 214.170 191.200 212.385 190.300 C 208.901 188.543,209.201 195.019,209.201 121.750 C 209.200 86.083,209.310 56.348,209.445 55.674 C 209.844 53.678,211.662 53.061,217.880 52.812 C 224.164 52.560,224.714 52.272,222.755 50.254 C 220.568 48.002,218.963 45.914,218.082 44.173 C 217.629 43.279,216.962 42.301,216.600 42.000 C 216.238 41.699,215.594 40.772,215.169 39.940 C 214.745 39.108,214.040 38.235,213.603 38.002 C 213.166 37.768,212.512 36.997,212.150 36.288 C 211.787 35.580,210.890 34.330,210.156 33.510 C 209.421 32.691,208.697 31.530,208.547 30.931 C 208.397 30.332,207.785 29.431,207.189 28.929 C 206.592 28.427,205.889 27.497,205.626 26.862 C 205.362 26.227,204.727 25.482,204.214 25.207 C 203.700 24.932,202.965 24.008,202.579 23.154 C 201.533 20.833,198.978 20.833,197.674 23.154 M241.867 85.467 C 241.345 85.988,241.612 87.087,242.443 87.838 C 242.907 88.257,243.709 89.433,244.225 90.451 C 244.742 91.469,245.712 92.851,246.382 93.521 C 247.052 94.190,247.600 95.016,247.600 95.355 C 247.600 95.695,248.141 96.589,248.803 97.343 C 249.465 98.096,250.365 99.523,250.803 100.514 C 251.241 101.504,251.861 102.415,252.182 102.538 C 252.502 102.660,253.141 103.500,253.601 104.402 C 254.062 105.305,255.015 106.832,255.719 107.796 C 257.618 110.395,258.645 111.985,259.775 114.077 C 260.333 115.109,261.252 116.416,261.817 116.981 C 262.382 117.545,263.124 118.678,263.466 119.497 C 263.809 120.317,264.423 121.221,264.832 121.507 C 265.240 121.794,265.941 122.786,266.389 123.714 C 266.836 124.641,267.607 126.030,268.101 126.800 C 268.986 128.178,269.002 128.433,269.119 143.188 C 269.207 154.324,269.361 158.254,269.719 158.482 C 270.608 159.047,286.250 158.862,286.733 158.281 C 287.020 157.935,287.203 152.591,287.282 142.303 L 287.400 126.844 288.637 125.522 C 289.317 124.795,290.107 123.608,290.392 122.884 C 290.677 122.160,291.210 121.350,291.575 121.084 C 291.941 120.818,292.489 119.988,292.794 119.239 C 293.098 118.491,294.034 117.085,294.874 116.115 C 295.713 115.145,296.400 114.078,296.400 113.745 C 296.400 113.411,296.946 112.593,297.613 111.926 C 298.280 111.259,299.099 110.057,299.434 109.256 C 299.769 108.455,300.473 107.350,301.000 106.800 C 301.527 106.250,302.222 105.166,302.546 104.392 C 302.869 103.617,303.528 102.627,304.010 102.192 C 304.491 101.756,305.250 100.680,305.696 99.800 C 306.143 98.920,307.023 97.609,307.654 96.886 C 308.284 96.163,308.800 95.309,308.800 94.987 C 308.800 94.666,309.406 93.727,310.147 92.901 C 310.888 92.076,311.626 90.975,311.788 90.456 C 311.950 89.936,312.713 88.813,313.485 87.959 C 315.953 85.227,315.767 85.171,304.713 85.293 L 295.006 85.400 294.314 86.869 C 293.934 87.678,293.285 88.578,292.873 88.869 C 292.460 89.161,291.893 90.099,291.613 90.952 C 291.333 91.806,290.528 93.156,289.824 93.952 C 289.120 94.749,288.315 95.972,288.035 96.671 C 287.756 97.370,287.164 98.270,286.720 98.671 C 286.277 99.072,285.486 100.242,284.964 101.272 C 284.442 102.301,283.821 103.263,283.584 103.410 C 283.348 103.556,282.686 104.663,282.115 105.869 C 279.878 110.595,275.869 110.853,274.388 106.365 C 274.095 105.477,273.516 104.569,273.102 104.347 C 272.687 104.125,272.017 103.172,271.612 102.229 C 271.208 101.285,270.405 100.041,269.827 99.464 C 269.250 98.886,268.447 97.643,268.043 96.701 C 267.640 95.759,267.004 94.736,266.632 94.426 C 266.259 94.117,265.716 93.294,265.425 92.599 C 265.134 91.903,264.290 90.518,263.548 89.522 C 262.807 88.525,261.893 87.145,261.519 86.455 L 260.837 85.200 251.485 85.200 C 246.342 85.200,242.013 85.320,241.867 85.467 M86.500 88.682 C 85.386 88.897,85.345 89.435,86.399 89.999 C 86.838 90.234,87.563 91.096,88.010 91.913 C 88.457 92.731,89.448 94.179,90.211 95.131 C 90.975 96.083,91.600 97.179,91.600 97.567 C 91.600 97.954,92.230 98.845,93.000 99.545 C 93.770 100.246,94.400 101.053,94.400 101.338 C 94.400 101.623,95.004 102.563,95.743 103.428 C 96.481 104.293,97.475 105.765,97.951 106.700 C 98.427 107.635,99.003 108.400,99.231 108.400 C 99.459 108.400,99.988 109.176,100.408 110.125 C 100.828 111.074,101.557 112.199,102.028 112.625 C 102.499 113.051,103.250 114.120,103.695 115.000 C 104.141 115.880,105.112 117.276,105.853 118.101 C 106.594 118.927,107.200 119.783,107.200 120.005 C 107.200 120.226,107.733 121.143,108.385 122.043 L 109.570 123.678 107.930 126.939 C 107.029 128.733,105.685 130.907,104.945 131.772 C 104.205 132.637,103.600 133.548,103.600 133.797 C 103.600 134.046,103.073 134.755,102.429 135.372 C 101.785 135.989,100.876 137.382,100.409 138.467 C 99.942 139.552,99.312 140.535,99.009 140.652 C 98.706 140.768,98.081 141.666,97.620 142.648 C 97.158 143.629,96.506 144.538,96.171 144.667 C 95.835 144.795,95.030 145.951,94.382 147.235 C 93.734 148.519,92.857 149.755,92.434 149.982 C 92.011 150.208,91.551 150.912,91.412 151.546 C 91.272 152.181,90.700 153.127,90.140 153.650 C 89.580 154.172,88.756 155.320,88.308 156.200 C 87.861 157.080,86.863 158.504,86.090 159.364 C 83.902 161.802,84.496 162.000,93.976 161.999 C 103.219 161.999,103.961 161.785,105.662 158.630 C 106.247 157.547,107.091 156.377,107.538 156.030 C 107.985 155.684,108.472 154.905,108.619 154.300 C 108.766 153.696,109.325 152.796,109.862 152.300 C 110.398 151.805,111.213 150.680,111.672 149.800 C 112.130 148.920,113.112 147.524,113.853 146.699 C 114.594 145.873,115.200 144.967,115.200 144.685 C 115.200 144.403,115.646 143.638,116.192 142.986 C 116.737 142.334,117.772 140.911,118.492 139.825 C 119.211 138.738,120.005 137.785,120.255 137.706 C 120.952 137.487,124.506 140.725,125.355 142.353 C 125.770 143.149,126.647 144.417,127.305 145.171 C 127.962 145.925,128.748 147.136,129.052 147.863 C 129.356 148.590,130.053 149.479,130.602 149.838 C 131.151 150.198,131.600 150.699,131.600 150.951 C 131.600 151.203,132.500 152.738,133.600 154.360 C 134.700 155.983,135.600 157.544,135.600 157.828 C 135.600 158.113,135.943 158.455,136.361 158.588 C 136.780 158.721,137.409 159.433,137.760 160.171 C 138.110 160.909,138.682 161.623,139.031 161.756 C 140.137 162.181,154.612 162.024,155.904 161.573 L 157.128 161.147 156.264 159.738 C 155.789 158.963,154.815 157.678,154.100 156.881 C 153.385 156.085,152.800 155.241,152.800 155.006 C 152.800 154.771,152.078 153.618,151.196 152.444 C 150.314 151.270,149.487 149.890,149.358 149.376 C 149.229 148.862,148.692 148.159,148.164 147.813 C 147.636 147.467,146.934 146.537,146.603 145.746 C 146.273 144.956,145.465 143.697,144.809 142.949 C 144.152 142.201,143.322 141.023,142.964 140.330 C 142.606 139.638,141.882 138.607,141.356 138.040 C 140.830 137.472,140.400 136.782,140.400 136.505 C 140.400 136.229,139.794 135.327,139.053 134.501 C 138.312 133.676,137.339 132.280,136.892 131.400 C 136.444 130.520,135.618 129.371,135.055 128.846 C 132.653 126.603,132.810 122.131,135.394 119.248 C 136.107 118.451,136.987 117.220,137.350 116.512 C 137.712 115.803,138.366 115.032,138.804 114.798 C 139.242 114.564,139.600 114.132,139.600 113.839 C 139.600 113.153,143.636 106.909,144.926 105.600 C 145.467 105.050,146.039 104.175,146.196 103.656 C 146.353 103.136,147.093 102.036,147.839 101.210 C 148.585 100.384,149.464 99.065,149.792 98.281 C 150.120 97.496,150.731 96.614,151.150 96.320 C 151.569 96.027,152.176 95.160,152.500 94.393 C 152.823 93.627,153.537 92.550,154.085 92.000 C 157.389 88.686,156.845 88.414,146.919 88.406 C 137.496 88.399,137.496 88.399,135.246 91.822 C 134.324 93.224,133.394 94.480,133.179 94.613 C 132.964 94.746,132.511 95.517,132.174 96.327 C 131.836 97.137,131.048 98.340,130.423 99.000 C 129.798 99.660,128.915 100.943,128.460 101.851 C 128.006 102.759,127.362 103.606,127.030 103.733 C 126.697 103.861,126.140 104.648,125.792 105.483 C 125.063 107.232,123.099 109.407,121.486 110.251 C 120.034 111.012,117.371 108.304,115.047 103.700 C 114.464 102.545,113.817 101.600,113.610 101.600 C 113.403 101.600,112.739 100.745,112.133 99.700 C 111.528 98.655,110.744 97.588,110.390 97.329 C 110.037 97.070,109.408 96.080,108.993 95.129 C 108.577 94.178,107.644 92.724,106.919 91.899 C 106.193 91.073,105.600 90.135,105.600 89.813 C 105.600 88.562,91.469 87.725,86.500 88.682 M85.300 235.464 C 84.612 235.743,84.594 245.234,85.280 245.920 C 85.638 246.278,90.094 246.400,102.861 246.400 C 121.021 246.400,121.803 246.476,122.257 248.286 C 122.443 249.024,122.152 249.587,120.948 250.821 C 117.379 254.479,116.800 255.158,116.800 255.683 C 116.800 255.987,116.057 257.032,115.150 258.005 C 114.242 258.978,113.070 260.455,112.545 261.287 C 112.020 262.119,111.418 262.800,111.208 262.800 C 110.998 262.800,110.582 263.265,110.284 263.833 C 109.720 264.910,107.919 267.096,105.700 269.398 C 104.985 270.140,104.400 270.907,104.400 271.103 C 104.400 271.299,103.410 272.603,102.200 274.000 C 100.990 275.397,100.000 276.775,100.000 277.061 C 100.000 277.347,99.557 277.872,99.016 278.227 C 98.474 278.581,97.933 279.181,97.813 279.559 C 97.620 280.167,96.068 282.012,93.069 285.200 C 92.552 285.750,91.890 286.650,91.598 287.200 C 91.074 288.188,89.166 290.574,86.352 293.761 C 85.556 294.662,84.770 295.850,84.605 296.400 C 84.440 296.950,84.051 297.691,83.740 298.046 C 83.305 298.542,83.200 299.792,83.287 303.443 L 83.400 308.193 84.600 308.449 C 86.233 308.798,145.544 308.791,146.800 308.443 C 147.787 308.169,147.801 308.104,147.912 303.367 L 148.023 298.569 146.683 298.085 C 145.711 297.733,140.542 297.600,127.845 297.600 C 116.684 297.600,110.071 297.452,109.583 297.191 C 107.595 296.127,107.856 294.227,110.328 291.776 C 110.980 291.129,111.859 290.022,112.283 289.316 C 112.706 288.609,113.535 287.651,114.126 287.187 C 114.717 286.722,115.200 286.150,115.200 285.916 C 115.200 285.681,115.917 284.659,116.793 283.645 C 119.703 280.274,120.410 279.408,121.078 278.400 C 121.442 277.850,122.408 276.661,123.224 275.758 C 124.041 274.855,124.821 273.763,124.959 273.330 C 125.096 272.898,125.746 272.147,126.404 271.660 C 127.062 271.174,127.600 270.540,127.600 270.252 C 127.600 269.964,128.226 269.159,128.990 268.464 C 129.755 267.768,130.653 266.672,130.986 266.028 C 131.319 265.384,131.953 264.742,132.396 264.601 C 132.838 264.461,133.200 264.040,133.200 263.665 C 133.200 262.993,135.987 259.366,138.900 256.245 C 139.725 255.362,140.400 254.418,140.400 254.148 C 140.400 253.879,140.889 253.273,141.487 252.803 C 142.085 252.333,142.796 251.420,143.068 250.774 C 143.339 250.129,144.002 249.400,144.542 249.154 C 145.994 248.492,146.456 246.214,146.318 240.400 L 146.200 235.400 116.000 235.330 C 99.390 235.292,85.575 235.352,85.300 235.464 M271.700 244.848 L 270.400 245.223 270.400 253.193 L 270.400 261.162 271.900 261.579 C 274.061 262.179,286.109 262.131,286.720 261.520 C 287.061 261.179,287.200 258.764,287.200 253.200 C 287.200 247.636,287.061 245.221,286.720 244.880 C 286.136 244.296,273.703 244.269,271.700 244.848 M271.300 273.082 C 270.402 273.255,270.400 273.273,270.400 281.378 L 270.400 289.500 271.650 289.750 C 273.256 290.071,285.733 290.077,286.567 289.757 C 287.115 289.547,287.200 288.430,287.200 281.400 C 287.200 274.370,287.115 273.253,286.567 273.043 C 285.866 272.774,272.726 272.808,271.300 273.082 M271.300 301.082 C 270.402 301.255,270.400 301.273,270.400 309.378 L 270.400 317.500 271.650 317.750 C 273.256 318.071,285.733 318.077,286.567 317.757 C 287.115 317.547,287.200 316.430,287.200 309.400 C 287.200 302.370,287.115 301.253,286.567 301.043 C 285.866 300.774,272.726 300.808,271.300 301.082 " stroke="none" fill="#f6fbf5" fill-rule="evenodd"></path><path id="path1" d="M199.200 18.691 C 197.802 18.945,196.961 19.802,196.126 21.822 C 195.730 22.777,195.005 23.743,194.515 23.966 C 194.024 24.190,193.362 24.994,193.045 25.754 C 192.727 26.514,192.092 27.337,191.633 27.582 C 191.174 27.828,190.544 28.638,190.233 29.382 C 189.922 30.127,189.309 30.928,188.870 31.163 C 188.431 31.398,187.663 32.267,187.163 33.095 C 186.664 33.923,185.662 35.270,184.938 36.090 C 184.213 36.909,183.512 38.011,183.380 38.537 C 183.248 39.063,182.613 39.883,181.970 40.359 C 181.326 40.835,180.800 41.483,180.800 41.800 C 180.800 42.117,180.255 42.779,179.589 43.271 C 178.923 43.763,177.926 44.939,177.372 45.883 C 176.819 46.827,176.227 47.600,176.057 47.600 C 175.391 47.600,174.000 50.783,174.000 52.305 C 174.000 54.610,174.390 54.763,180.580 54.888 L 186.106 55.000 186.853 56.394 C 188.008 58.549,188.023 185.893,186.869 186.938 C 185.898 187.816,55.202 187.976,54.494 187.100 C 54.272 186.825,54.017 184.315,53.928 181.523 C 53.731 175.392,53.413 174.800,50.309 174.800 C 48.520 174.800,48.211 174.945,46.905 176.400 C 46.115 177.280,45.266 178.000,45.018 178.000 C 44.770 178.000,43.899 178.585,43.084 179.300 C 39.898 182.093,38.487 183.200,38.114 183.200 C 37.767 183.200,36.389 184.303,31.574 188.436 C 30.790 189.109,29.504 190.051,28.717 190.530 C 26.447 191.910,25.090 192.904,23.800 194.132 C 23.140 194.760,21.648 195.898,20.484 196.660 C 17.565 198.571,16.425 200.853,17.207 203.220 C 17.759 204.895,17.952 205.089,21.200 207.228 C 22.190 207.880,24.080 209.221,25.400 210.209 C 26.720 211.196,28.340 212.260,29.000 212.574 C 29.660 212.888,31.032 213.922,32.048 214.872 C 33.065 215.822,34.415 216.915,35.048 217.300 C 37.849 219.004,41.155 221.463,47.103 226.270 C 51.998 230.225,53.989 228.127,54.004 219.000 C 54.008 216.140,54.183 213.530,54.391 213.200 C 54.726 212.671,62.567 212.587,120.307 212.491 L 185.843 212.382 186.725 213.321 L 187.607 214.259 187.504 277.288 C 187.404 337.822,187.371 340.348,186.665 341.128 C 186.005 341.857,185.356 341.954,180.349 342.070 C 174.180 342.214,174.017 342.284,174.006 344.815 C 173.999 346.376,175.257 349.177,176.202 349.705 C 176.534 349.891,177.161 350.740,177.596 351.592 C 178.031 352.445,178.732 353.252,179.155 353.386 C 179.577 353.520,180.220 354.255,180.582 355.019 C 180.945 355.784,181.669 356.689,182.191 357.031 C 182.713 357.373,183.312 358.136,183.523 358.726 C 183.734 359.317,184.312 360.250,184.808 360.800 C 185.304 361.350,186.203 362.566,186.806 363.501 C 187.409 364.437,188.376 365.697,188.955 366.301 C 191.819 369.293,192.642 370.317,193.257 371.661 C 193.625 372.465,194.258 373.233,194.663 373.369 C 195.068 373.504,195.743 374.360,196.163 375.270 C 198.213 379.719,202.121 379.740,204.079 375.314 C 204.494 374.377,205.201 373.414,205.650 373.173 C 206.100 372.932,206.734 372.099,207.059 371.321 C 207.384 370.543,208.179 369.461,208.825 368.918 C 209.471 368.374,210.000 367.720,210.000 367.464 C 210.000 367.209,210.710 366.223,211.578 365.274 C 212.445 364.325,213.354 362.944,213.598 362.207 C 213.841 361.469,214.495 360.567,215.051 360.203 C 215.607 359.839,216.242 359.026,216.461 358.397 C 216.680 357.768,217.295 356.967,217.828 356.619 C 218.360 356.270,219.068 355.334,219.400 354.538 C 219.732 353.743,220.633 352.396,221.402 351.545 C 222.171 350.694,222.800 349.812,222.800 349.586 C 222.800 349.359,223.430 348.543,224.200 347.773 C 227.856 344.118,225.813 341.800,218.935 341.800 L 213.800 341.800 213.101 340.400 C 212.444 339.085,212.401 335.205,212.401 276.570 L 212.400 214.139 213.336 213.260 L 214.273 212.380 275.103 212.490 C 308.560 212.551,336.083 212.749,336.267 212.932 C 336.450 213.115,336.694 216.295,336.808 219.999 C 337.054 227.980,337.239 228.400,340.491 228.400 C 342.280 228.400,342.589 228.255,343.895 226.800 C 344.685 225.920,345.565 225.200,345.852 225.200 C 346.138 225.200,346.987 224.660,347.739 224.000 C 348.491 223.340,349.242 222.800,349.408 222.800 C 349.574 222.800,350.470 222.125,351.397 221.300 C 352.325 220.475,354.126 218.990,355.400 218.000 C 356.674 217.010,358.475 215.525,359.403 214.700 C 360.330 213.875,361.275 213.200,361.501 213.200 C 361.919 213.200,363.519 212.006,367.308 208.867 C 368.459 207.913,370.051 206.797,370.847 206.385 C 374.634 204.429,374.760 198.873,371.057 197.108 C 370.275 196.735,368.882 195.748,367.961 194.915 C 366.286 193.399,364.801 192.401,361.800 190.774 C 360.920 190.298,359.570 189.297,358.800 188.550 C 356.829 186.640,354.045 184.532,352.400 183.704 C 351.630 183.317,350.937 182.856,350.860 182.680 C 350.783 182.504,349.973 181.890,349.060 181.316 C 348.147 180.742,346.230 179.236,344.800 177.971 C 339.203 173.017,336.807 174.470,336.802 182.820 C 336.801 185.255,336.626 186.814,336.320 187.120 C 335.951 187.489,321.784 187.600,274.990 187.600 L 214.139 187.600 213.270 186.674 L 212.400 185.748 212.400 122.001 L 212.400 58.253 213.264 56.469 L 214.127 54.685 219.058 54.948 C 223.660 55.194,224.042 55.158,224.794 54.406 C 226.037 53.163,225.902 50.616,224.545 49.727 C 223.965 49.347,223.261 48.488,222.980 47.818 C 222.699 47.148,221.993 46.060,221.411 45.400 C 220.828 44.740,220.000 43.528,219.571 42.706 C 219.141 41.884,218.351 40.924,217.815 40.573 C 217.279 40.222,216.633 39.307,216.380 38.541 C 216.120 37.752,215.508 36.959,214.972 36.714 C 214.450 36.477,213.826 35.685,213.585 34.955 C 213.344 34.225,212.606 33.048,211.944 32.340 C 211.282 31.632,210.393 30.371,209.969 29.539 C 209.545 28.707,208.838 27.834,208.398 27.599 C 207.958 27.364,207.344 26.562,207.033 25.818 C 206.722 25.073,206.095 24.265,205.640 24.022 C 205.185 23.778,204.425 22.676,203.950 21.573 C 203.067 19.519,201.897 18.358,200.811 18.454 C 200.475 18.484,199.750 18.591,199.200 18.691 M202.579 23.154 C 202.965 24.008,203.700 24.932,204.214 25.207 C 204.727 25.482,205.362 26.227,205.626 26.862 C 205.889 27.497,206.592 28.427,207.189 28.929 C 207.785 29.431,208.397 30.332,208.547 30.931 C 208.697 31.530,209.421 32.691,210.156 33.510 C 210.890 34.330,211.787 35.580,212.150 36.288 C 212.512 36.997,213.166 37.768,213.603 38.002 C 214.040 38.235,214.745 39.108,215.169 39.940 C 215.594 40.772,216.238 41.699,216.600 42.000 C 216.962 42.301,217.629 43.279,218.082 44.173 C 218.963 45.914,220.568 48.002,222.755 50.254 C 224.714 52.272,224.164 52.560,217.880 52.812 C 211.662 53.061,209.844 53.678,209.445 55.674 C 209.310 56.348,209.200 86.083,209.201 121.750 C 209.201 195.019,208.901 188.543,212.385 190.300 L 214.170 191.200 275.031 191.200 L 335.892 191.200 336.995 190.333 C 338.657 189.025,339.200 187.276,339.200 183.232 L 339.200 179.638 340.691 179.226 C 342.088 178.840,342.269 178.898,343.591 180.157 C 344.366 180.895,346.530 182.534,348.400 183.799 C 350.270 185.064,352.376 186.572,353.080 187.150 C 356.062 189.598,358.709 191.600,358.962 191.600 C 359.112 191.600,360.188 192.320,361.354 193.200 C 362.519 194.080,363.608 194.800,363.773 194.800 C 364.542 194.800,371.200 200.905,371.200 201.610 C 371.200 202.285,364.751 208.400,364.039 208.400 C 363.827 208.400,362.877 209.037,361.927 209.815 C 359.781 211.573,355.478 214.945,353.015 216.800 C 351.993 217.570,350.345 218.875,349.354 219.700 C 348.362 220.525,347.427 221.204,347.276 221.209 C 347.124 221.214,346.280 221.868,345.400 222.663 C 342.891 224.927,342.358 225.182,340.800 224.859 L 339.400 224.569 339.193 218.385 C 338.979 211.979,338.730 210.957,337.108 209.821 C 335.669 208.812,214.293 208.883,212.174 209.893 C 208.940 211.435,209.200 205.551,209.200 277.158 C 209.200 318.312,209.340 341.117,209.597 341.793 C 210.188 343.347,212.187 343.995,216.487 344.030 C 222.770 344.080,226.301 345.216,223.216 346.195 C 222.760 346.340,222.029 347.159,221.592 348.016 C 221.155 348.872,220.437 349.766,219.997 350.002 C 219.557 350.237,218.650 351.458,217.983 352.715 C 216.445 355.613,215.172 357.480,213.699 359.000 C 213.059 359.660,212.207 360.740,211.805 361.400 C 211.403 362.060,210.816 362.753,210.500 362.941 C 210.184 363.128,209.517 364.163,209.018 365.239 C 208.519 366.316,207.636 367.571,207.056 368.028 C 206.475 368.484,206.000 369.122,206.000 369.445 C 206.000 369.768,205.325 370.712,204.500 371.543 C 203.675 372.375,202.682 373.647,202.294 374.371 C 201.462 375.920,199.117 375.892,198.000 374.318 C 197.670 373.854,196.836 372.904,196.147 372.208 C 195.458 371.512,194.612 370.397,194.268 369.731 C 193.923 369.064,193.182 368.218,192.620 367.850 C 192.059 367.482,191.600 366.947,191.600 366.661 C 191.600 365.912,186.553 359.296,183.300 355.779 C 182.585 355.006,182.000 354.137,182.000 353.849 C 182.000 353.560,181.618 352.981,181.151 352.562 C 180.685 352.143,179.598 350.765,178.736 349.500 C 177.875 348.235,177.027 347.200,176.853 347.200 C 176.678 347.200,176.298 346.756,176.007 346.214 C 174.990 344.312,175.821 344.001,181.949 343.991 C 189.105 343.980,190.550 343.433,190.939 340.591 C 191.083 339.545,191.200 310.672,191.200 276.429 L 191.200 214.170 190.300 212.385 C 188.542 208.899,195.166 209.201,120.589 209.201 C 61.589 209.200,54.484 209.266,53.692 209.821 C 52.097 210.938,51.826 212.003,51.609 218.000 L 51.400 223.800 49.894 224.172 C 48.489 224.519,48.300 224.453,47.053 223.172 C 45.735 221.817,43.332 219.947,40.407 218.000 C 36.420 215.346,35.277 214.524,33.747 213.215 C 31.721 211.480,27.401 208.400,26.995 208.400 C 26.240 208.400,19.600 202.345,19.600 201.657 C 19.600 201.111,21.878 198.881,24.969 196.400 C 26.202 195.410,28.030 193.925,29.030 193.100 C 30.030 192.275,31.043 191.600,31.280 191.600 C 31.517 191.600,32.468 190.925,33.395 190.100 C 36.770 187.094,39.039 185.304,40.306 184.649 C 41.018 184.281,41.600 183.831,41.600 183.650 C 41.600 183.468,42.455 182.762,43.500 182.081 C 44.545 181.400,46.173 180.173,47.117 179.355 L 48.834 177.868 50.217 178.528 L 51.600 179.187 51.600 183.006 C 51.600 187.288,52.117 189.005,53.805 190.333 L 54.908 191.200 120.554 191.191 C 195.175 191.181,188.786 191.481,190.405 187.914 C 191.206 186.148,191.653 60.610,190.873 56.220 C 190.406 53.585,188.970 53.029,182.200 52.862 C 175.164 52.688,174.513 52.314,176.970 49.857 C 177.723 49.104,178.705 47.770,179.152 46.893 C 179.600 46.016,180.235 45.195,180.565 45.069 C 180.894 44.942,181.524 44.132,181.965 43.269 C 182.405 42.405,183.035 41.595,183.365 41.469 C 183.694 41.342,184.333 40.516,184.783 39.633 C 185.234 38.750,185.960 37.835,186.397 37.602 C 186.834 37.368,187.461 36.656,187.790 36.019 C 188.119 35.383,189.111 34.027,189.994 33.007 C 190.877 31.986,191.600 30.798,191.600 30.367 C 191.600 29.923,192.025 29.389,192.581 29.136 C 193.120 28.890,193.850 28.082,194.202 27.340 C 194.554 26.598,195.283 25.702,195.821 25.349 C 196.360 24.996,197.194 24.008,197.674 23.154 C 198.978 20.833,201.533 20.833,202.579 23.154 M240.654 84.429 C 239.079 85.668,239.515 87.988,241.814 90.600 C 242.394 91.260,243.116 92.388,243.417 93.106 C 243.718 93.824,244.250 94.521,244.601 94.656 C 244.951 94.790,245.758 96.047,246.394 97.450 C 247.041 98.878,247.805 100.000,248.129 100.000 C 248.678 100.000,250.000 102.227,250.000 103.151 C 250.000 103.388,250.429 103.863,250.953 104.206 C 251.477 104.549,252.010 105.349,252.137 105.983 C 252.264 106.618,253.185 108.057,254.184 109.182 C 255.183 110.306,256.000 111.492,256.000 111.817 C 256.000 112.142,256.540 112.972,257.200 113.663 C 257.860 114.354,258.400 115.168,258.400 115.473 C 258.400 116.225,259.601 118.042,260.669 118.906 C 261.149 119.295,261.748 120.237,262.000 121.000 C 262.252 121.763,262.866 122.708,263.364 123.100 C 263.863 123.492,264.795 125.070,265.435 126.607 L 266.600 129.400 266.800 143.957 L 267.000 158.514 268.128 159.357 C 269.167 160.134,269.859 160.210,276.928 160.326 C 290.014 160.540,288.800 162.224,288.800 143.855 L 288.800 129.310 289.990 127.813 C 290.644 126.989,291.296 125.694,291.439 124.935 C 291.597 124.093,292.090 123.297,292.703 122.895 C 293.257 122.533,293.975 121.598,294.300 120.818 C 294.626 120.038,295.507 118.718,296.259 117.884 C 297.011 117.051,297.734 115.829,297.866 115.170 C 297.998 114.511,298.457 113.783,298.887 113.554 C 299.316 113.324,299.927 112.516,300.243 111.759 C 300.559 111.002,301.419 109.711,302.153 108.891 C 302.887 108.071,303.707 106.724,303.976 105.897 C 304.244 105.070,304.809 104.209,305.231 103.984 C 305.652 103.758,306.375 102.833,306.837 101.928 C 307.298 101.024,308.113 99.815,308.648 99.242 C 309.183 98.669,309.830 97.507,310.086 96.660 C 310.341 95.813,310.991 94.831,311.530 94.478 C 312.068 94.125,312.754 93.250,313.054 92.533 C 313.353 91.816,314.132 90.622,314.785 89.878 C 315.896 88.613,316.800 86.853,316.800 85.956 C 316.800 85.740,316.358 85.122,315.818 84.582 L 314.836 83.600 304.800 83.600 L 294.764 83.600 293.778 84.700 C 293.236 85.305,292.361 86.250,291.833 86.800 C 291.305 87.350,290.587 88.497,290.237 89.348 C 289.887 90.200,289.069 91.440,288.420 92.104 C 287.770 92.769,287.124 93.838,286.982 94.480 C 286.841 95.122,286.151 96.171,285.448 96.811 C 284.745 97.450,283.930 98.655,283.637 99.487 C 283.344 100.319,282.722 101.418,282.255 101.929 C 281.788 102.440,281.045 103.610,280.603 104.529 C 279.336 107.166,276.731 107.240,275.630 104.670 C 275.211 103.693,274.530 102.647,274.116 102.347 C 273.702 102.046,273.052 100.970,272.670 99.956 C 272.288 98.941,271.461 97.652,270.831 97.090 C 270.201 96.529,269.477 95.439,269.222 94.668 C 268.968 93.896,268.319 92.977,267.780 92.624 C 267.241 92.270,266.800 91.709,266.800 91.375 C 266.800 90.416,265.297 87.723,264.616 87.462 C 264.277 87.331,263.704 86.607,263.344 85.851 C 262.325 83.715,261.706 83.600,251.235 83.600 C 242.202 83.600,241.653 83.643,240.654 84.429 M261.519 86.455 C 261.893 87.145,262.807 88.525,263.548 89.522 C 264.290 90.518,265.134 91.903,265.425 92.599 C 265.716 93.294,266.259 94.117,266.632 94.426 C 267.004 94.736,267.640 95.759,268.043 96.701 C 268.447 97.643,269.250 98.886,269.827 99.464 C 270.405 100.041,271.208 101.285,271.612 102.229 C 272.017 103.172,272.687 104.125,273.102 104.347 C 273.516 104.569,274.095 105.477,274.388 106.365 C 275.869 110.853,279.878 110.595,282.115 105.869 C 282.686 104.663,283.348 103.556,283.584 103.410 C 283.821 103.263,284.442 102.301,284.964 101.272 C 285.486 100.242,286.277 99.072,286.720 98.671 C 287.164 98.270,287.756 97.370,288.035 96.671 C 288.315 95.972,289.120 94.749,289.824 93.952 C 290.528 93.156,291.333 91.806,291.613 90.952 C 291.893 90.099,292.460 89.161,292.873 88.869 C 293.285 88.578,293.934 87.678,294.314 86.869 L 295.006 85.400 304.713 85.293 C 315.767 85.171,315.953 85.227,313.485 87.959 C 312.713 88.813,311.950 89.936,311.788 90.456 C 311.626 90.975,310.888 92.076,310.147 92.901 C 309.406 93.727,308.800 94.666,308.800 94.987 C 308.800 95.309,308.284 96.163,307.654 96.886 C 307.023 97.609,306.143 98.920,305.696 99.800 C 305.250 100.680,304.491 101.756,304.010 102.192 C 303.528 102.627,302.869 103.617,302.546 104.392 C 302.222 105.166,301.527 106.250,301.000 106.800 C 300.473 107.350,299.769 108.455,299.434 109.256 C 299.099 110.057,298.280 111.259,297.613 111.926 C 296.946 112.593,296.400 113.411,296.400 113.745 C 296.400 114.078,295.713 115.145,294.874 116.115 C 294.034 117.085,293.098 118.491,292.794 119.239 C 292.489 119.988,291.941 120.818,291.575 121.084 C 291.210 121.350,290.677 122.160,290.392 122.884 C 290.107 123.608,289.317 124.795,288.637 125.522 L 287.400 126.844 287.282 142.303 C 287.203 152.591,287.020 157.935,286.733 158.281 C 286.250 158.862,270.608 159.047,269.719 158.482 C 269.361 158.254,269.207 154.324,269.119 143.188 C 269.002 128.433,268.986 128.178,268.101 126.800 C 267.607 126.030,266.836 124.641,266.389 123.714 C 265.941 122.786,265.240 121.794,264.832 121.507 C 264.423 121.221,263.809 120.317,263.466 119.497 C 263.124 118.678,262.382 117.545,261.817 116.981 C 261.252 116.416,260.333 115.109,259.775 114.077 C 258.645 111.985,257.618 110.395,255.719 107.796 C 255.015 106.832,254.062 105.305,253.601 104.402 C 253.141 103.500,252.502 102.660,252.182 102.538 C 251.861 102.415,251.241 101.504,250.803 100.514 C 250.365 99.523,249.465 98.096,248.803 97.343 C 248.141 96.589,247.600 95.695,247.600 95.355 C 247.600 95.016,247.052 94.190,246.382 93.521 C 245.712 92.851,244.742 91.469,244.225 90.451 C 243.709 89.433,242.907 88.257,242.443 87.838 C 241.612 87.087,241.345 85.988,241.867 85.467 C 242.013 85.320,246.342 85.200,251.485 85.200 L 260.837 85.200 261.519 86.455 M84.557 87.807 C 83.372 88.992,83.532 90.147,85.059 91.435 C 85.604 91.894,86.469 93.175,86.982 94.282 C 87.495 95.389,88.290 96.558,88.749 96.879 C 89.208 97.201,89.855 98.113,90.186 98.905 C 90.517 99.698,91.113 100.584,91.511 100.873 C 91.908 101.163,92.725 102.418,93.327 103.661 C 93.929 104.905,94.678 106.021,94.992 106.142 C 95.307 106.262,95.934 107.087,96.387 107.975 C 96.840 108.862,97.630 109.863,98.144 110.200 C 98.657 110.536,99.288 111.516,99.546 112.377 C 99.804 113.238,100.631 114.679,101.383 115.580 C 102.136 116.481,102.854 117.541,102.980 117.937 C 103.105 118.332,103.746 119.053,104.404 119.540 C 105.062 120.026,105.600 120.697,105.600 121.032 C 105.600 121.366,105.847 122.126,106.149 122.720 C 106.877 124.152,105.821 127.517,104.073 129.334 C 103.403 130.030,102.733 131.097,102.583 131.704 C 102.434 132.312,101.811 133.165,101.200 133.600 C 100.589 134.035,99.981 134.821,99.849 135.346 C 99.717 135.872,98.894 137.167,98.020 138.225 C 97.146 139.282,96.323 140.641,96.190 141.244 C 96.058 141.848,95.514 142.626,94.983 142.974 C 94.452 143.323,93.715 144.191,93.347 144.904 C 92.978 145.617,92.172 146.830,91.556 147.600 C 90.940 148.370,90.158 149.669,89.819 150.486 C 89.479 151.303,88.855 152.156,88.433 152.383 C 88.010 152.609,87.454 153.432,87.196 154.211 C 86.939 154.991,86.284 155.919,85.741 156.275 C 84.582 157.035,83.200 159.561,83.200 160.922 C 83.200 163.232,83.968 163.400,94.561 163.400 C 105.418 163.400,105.845 163.302,106.997 160.546 C 107.327 159.756,108.138 158.493,108.799 157.740 C 109.459 156.988,110.000 156.095,110.000 155.755 C 110.000 155.416,110.545 154.593,111.212 153.927 C 111.878 153.260,112.713 152.149,113.066 151.458 C 113.420 150.766,114.296 149.545,115.013 148.745 C 115.730 147.945,116.440 146.728,116.591 146.042 C 116.742 145.355,117.209 144.610,117.628 144.385 C 118.048 144.160,118.657 143.487,118.981 142.888 C 120.176 140.683,120.152 140.695,121.764 141.463 C 122.921 142.015,123.491 142.687,124.326 144.486 C 124.917 145.758,125.698 146.896,126.063 147.015 C 126.428 147.133,127.097 148.019,127.550 148.984 C 128.004 149.948,128.699 150.976,129.096 151.268 C 129.493 151.561,130.154 152.560,130.564 153.488 C 130.975 154.417,131.665 155.497,132.098 155.888 C 132.531 156.280,133.244 157.303,133.683 158.163 C 136.232 163.158,137.860 163.733,148.901 163.541 C 159.134 163.364,161.319 162.437,158.489 159.474 C 157.820 158.773,156.995 157.525,156.657 156.700 C 156.318 155.875,155.854 155.200,155.626 155.200 C 155.398 155.200,154.670 154.127,154.008 152.815 C 153.345 151.503,152.431 150.231,151.976 149.987 C 151.520 149.743,150.813 148.763,150.404 147.808 C 149.995 146.854,149.416 145.922,149.118 145.737 C 148.821 145.551,148.251 144.659,147.852 143.753 C 147.453 142.848,146.513 141.528,145.763 140.821 C 145.014 140.114,144.400 139.266,144.400 138.937 C 144.400 138.608,143.835 137.773,143.144 137.082 C 142.453 136.391,141.726 135.243,141.529 134.529 C 141.333 133.816,140.662 132.724,140.040 132.102 C 139.418 131.479,138.593 130.347,138.206 129.585 C 137.820 128.823,137.065 127.839,136.527 127.398 C 134.796 125.977,134.795 123.545,136.525 121.631 C 137.310 120.761,138.168 119.333,138.430 118.458 C 138.719 117.494,139.205 116.787,139.660 116.668 C 140.074 116.560,140.761 115.685,141.186 114.725 C 141.611 113.764,142.413 112.551,142.969 112.029 C 143.525 111.507,144.277 110.302,144.640 109.351 C 145.003 108.400,145.621 107.520,146.013 107.396 C 146.405 107.272,146.993 106.502,147.320 105.685 C 147.647 104.868,148.313 103.840,148.800 103.400 C 149.288 102.960,150.138 101.709,150.690 100.621 C 151.242 99.532,152.103 98.320,152.602 97.927 C 153.101 97.534,153.629 96.715,153.774 96.106 C 153.920 95.498,154.551 94.550,155.178 94.000 C 155.806 93.450,156.805 92.106,157.400 91.014 L 158.480 89.028 157.234 87.914 L 155.987 86.800 147.094 86.802 C 135.521 86.805,134.201 87.236,133.337 91.288 C 133.209 91.887,132.783 92.478,132.390 92.603 C 131.997 92.728,131.389 93.543,131.041 94.415 C 130.692 95.286,129.938 96.405,129.364 96.900 C 128.791 97.395,127.960 98.520,127.517 99.400 C 127.074 100.280,126.302 101.450,125.801 102.000 C 125.300 102.550,124.757 103.450,124.595 104.000 C 124.293 105.025,121.084 108.400,120.412 108.400 C 120.206 108.400,119.698 107.635,119.284 106.700 C 118.869 105.765,118.224 104.747,117.850 104.438 C 117.475 104.129,116.801 103.021,116.352 101.976 C 115.884 100.889,115.207 99.991,114.769 99.876 C 114.344 99.765,113.672 98.900,113.257 97.932 C 112.846 96.973,112.202 95.933,111.825 95.621 C 111.449 95.309,110.771 94.321,110.318 93.427 C 109.575 91.960,108.325 90.292,106.027 87.700 C 105.240 86.813,105.090 86.800,95.396 86.800 L 85.564 86.800 84.557 87.807 M104.826 88.814 C 105.252 89.042,105.600 89.491,105.600 89.813 C 105.600 90.135,106.193 91.073,106.919 91.899 C 107.644 92.724,108.577 94.178,108.993 95.129 C 109.408 96.080,110.037 97.070,110.390 97.329 C 110.744 97.588,111.528 98.655,112.133 99.700 C 112.739 100.745,113.403 101.600,113.610 101.600 C 113.817 101.600,114.464 102.545,115.047 103.700 C 117.371 108.304,120.034 111.012,121.486 110.251 C 123.099 109.407,125.063 107.232,125.792 105.483 C 126.140 104.648,126.697 103.861,127.030 103.733 C 127.362 103.606,128.006 102.759,128.460 101.851 C 128.915 100.943,129.798 99.660,130.423 99.000 C 131.048 98.340,131.836 97.137,132.174 96.327 C 132.511 95.517,132.964 94.746,133.179 94.613 C 133.394 94.480,134.324 93.224,135.246 91.822 C 137.496 88.399,137.496 88.399,146.919 88.406 C 156.845 88.414,157.389 88.686,154.085 92.000 C 153.537 92.550,152.823 93.627,152.500 94.393 C 152.176 95.160,151.569 96.027,151.150 96.320 C 150.731 96.614,150.120 97.496,149.792 98.281 C 149.464 99.065,148.585 100.384,147.839 101.210 C 147.093 102.036,146.353 103.136,146.196 103.656 C 146.039 104.175,145.467 105.050,144.926 105.600 C 143.636 106.909,139.600 113.153,139.600 113.839 C 139.600 114.132,139.242 114.564,138.804 114.798 C 138.366 115.032,137.712 115.803,137.350 116.512 C 136.987 117.220,136.107 118.451,135.394 119.248 C 132.810 122.131,132.653 126.603,135.055 128.846 C 135.618 129.371,136.444 130.520,136.892 131.400 C 137.339 132.280,138.312 133.676,139.053 134.501 C 139.794 135.327,140.400 136.229,140.400 136.505 C 140.400 136.782,140.830 137.472,141.356 138.040 C 141.882 138.607,142.606 139.638,142.964 140.330 C 143.322 141.023,144.152 142.201,144.809 142.949 C 145.465 143.697,146.273 144.956,146.603 145.746 C 146.934 146.537,147.636 147.467,148.164 147.813 C 148.692 148.159,149.229 148.862,149.358 149.376 C 149.487 149.890,150.314 151.270,151.196 152.444 C 152.078 153.618,152.800 154.771,152.800 155.006 C 152.800 155.241,153.385 156.085,154.100 156.881 C 154.815 157.678,155.789 158.963,156.264 159.738 L 157.128 161.147 155.904 161.573 C 154.612 162.024,140.137 162.181,139.031 161.756 C 138.682 161.623,138.110 160.909,137.760 160.171 C 137.409 159.433,136.780 158.721,136.361 158.588 C 135.943 158.455,135.600 158.113,135.600 157.828 C 135.600 157.544,134.700 155.983,133.600 154.360 C 132.500 152.738,131.600 151.203,131.600 150.951 C 131.600 150.699,131.151 150.198,130.602 149.838 C 130.053 149.479,129.356 148.590,129.052 147.863 C 128.748 147.136,127.962 145.925,127.305 145.171 C 126.647 144.417,125.770 143.149,125.355 142.353 C 124.506 140.725,120.952 137.487,120.255 137.706 C 120.005 137.785,119.211 138.738,118.492 139.825 C 117.772 140.911,116.737 142.334,116.192 142.986 C 115.646 143.638,115.200 144.403,115.200 144.685 C 115.200 144.967,114.594 145.873,113.853 146.699 C 113.112 147.524,112.130 148.920,111.672 149.800 C 111.213 150.680,110.398 151.805,109.862 152.300 C 109.325 152.796,108.766 153.696,108.619 154.300 C 108.472 154.905,107.985 155.684,107.538 156.030 C 107.091 156.377,106.247 157.547,105.662 158.630 C 103.961 161.785,103.219 161.999,93.976 161.999 C 84.496 162.000,83.902 161.802,86.090 159.364 C 86.863 158.504,87.861 157.080,88.308 156.200 C 88.756 155.320,89.580 154.172,90.140 153.650 C 90.700 153.127,91.272 152.181,91.412 151.546 C 91.551 150.912,92.011 150.208,92.434 149.982 C 92.857 149.755,93.734 148.519,94.382 147.235 C 95.030 145.951,95.835 144.795,96.171 144.667 C 96.506 144.538,97.158 143.629,97.620 142.648 C 98.081 141.666,98.706 140.768,99.009 140.652 C 99.312 140.535,99.942 139.552,100.409 138.467 C 100.876 137.382,101.785 135.989,102.429 135.372 C 103.073 134.755,103.600 134.046,103.600 133.797 C 103.600 133.548,104.205 132.637,104.945 131.772 C 105.685 130.907,107.029 128.733,107.930 126.939 L 109.570 123.678 108.385 122.043 C 107.733 121.143,107.200 120.226,107.200 120.005 C 107.200 119.783,106.594 118.927,105.853 118.101 C 105.112 117.276,104.141 115.880,103.695 115.000 C 103.250 114.120,102.499 113.051,102.028 112.625 C 101.557 112.199,100.828 111.074,100.408 110.125 C 99.988 109.176,99.459 108.400,99.231 108.400 C 99.003 108.400,98.427 107.635,97.951 106.700 C 97.475 105.765,96.481 104.293,95.743 103.428 C 95.004 102.563,94.400 101.623,94.400 101.338 C 94.400 101.053,93.770 100.246,93.000 99.545 C 92.230 98.845,91.600 97.954,91.600 97.567 C 91.600 97.179,90.975 96.083,90.211 95.131 C 89.448 94.179,88.457 92.731,88.010 91.913 C 87.563 91.096,86.838 90.234,86.399 89.999 C 85.345 89.435,85.386 88.897,86.500 88.682 C 88.474 88.302,104.079 88.414,104.826 88.814 M83.782 234.582 C 82.720 235.644,82.288 243.802,83.171 246.125 C 83.838 247.878,85.061 247.998,102.560 248.028 C 119.097 248.056,121.449 248.210,119.695 249.149 C 119.207 249.410,118.542 250.139,118.216 250.769 C 117.890 251.400,117.123 252.469,116.512 253.145 C 111.011 259.231,108.400 262.477,108.400 263.230 C 108.400 263.603,107.943 264.208,107.384 264.574 C 106.825 264.940,106.073 265.859,105.712 266.616 C 105.351 267.373,104.741 268.092,104.357 268.214 C 103.973 268.336,103.272 269.091,102.799 269.891 C 102.327 270.692,101.490 271.809,100.940 272.373 C 98.723 274.650,95.964 278.203,95.749 279.061 C 95.623 279.562,95.175 280.081,94.754 280.215 C 94.332 280.349,93.626 281.165,93.185 282.029 C 92.744 282.893,92.210 283.600,91.997 283.600 C 91.784 283.600,91.143 284.340,90.572 285.245 C 90.001 286.150,89.011 287.455,88.372 288.145 C 84.949 291.846,83.200 294.091,83.200 294.784 C 83.200 295.211,82.943 295.704,82.628 295.880 C 80.543 297.047,79.863 307.099,81.742 308.979 C 83.152 310.389,85.258 310.467,118.200 310.326 C 153.850 310.174,150.387 310.898,150.388 303.600 C 150.390 295.523,152.380 296.230,129.200 296.078 C 118.970 296.012,110.451 295.808,110.269 295.627 C 110.086 295.446,110.662 294.510,111.548 293.549 C 114.597 290.241,116.800 287.447,116.800 286.889 C 116.800 286.361,117.338 285.728,120.900 282.065 C 121.725 281.217,122.400 280.391,122.400 280.229 C 122.400 279.942,123.629 278.409,127.142 274.311 C 128.100 273.193,129.060 271.774,129.275 271.156 C 129.491 270.538,130.028 269.918,130.470 269.778 C 130.912 269.638,131.523 268.925,131.828 268.195 C 132.133 267.464,132.927 266.479,133.591 266.006 C 134.256 265.533,134.800 264.965,134.800 264.744 C 134.800 264.377,136.220 262.617,140.041 258.248 C 140.834 257.342,141.600 256.117,141.742 255.527 C 141.885 254.936,142.378 254.334,142.837 254.188 C 143.297 254.042,143.917 253.339,144.215 252.625 C 144.514 251.911,145.362 250.866,146.101 250.303 C 148.590 248.404,149.568 236.732,147.418 234.582 L 146.436 233.600 115.600 233.600 L 84.764 233.600 83.782 234.582 M146.318 240.400 C 146.456 246.214,145.994 248.492,144.542 249.154 C 144.002 249.400,143.339 250.129,143.068 250.774 C 142.796 251.420,142.085 252.333,141.487 252.803 C 140.889 253.273,140.400 253.879,140.400 254.148 C 140.400 254.418,139.725 255.362,138.900 256.245 C 135.987 259.366,133.200 262.993,133.200 263.665 C 133.200 264.040,132.838 264.461,132.396 264.601 C 131.953 264.742,131.319 265.384,130.986 266.028 C 130.653 266.672,129.755 267.768,128.990 268.464 C 128.226 269.159,127.600 269.964,127.600 270.252 C 127.600 270.540,127.062 271.174,126.404 271.660 C 125.746 272.147,125.096 272.898,124.959 273.330 C 124.821 273.763,124.041 274.855,123.224 275.758 C 122.408 276.661,121.442 277.850,121.078 278.400 C 120.410 279.408,119.703 280.274,116.793 283.645 C 115.917 284.659,115.200 285.681,115.200 285.916 C 115.200 286.150,114.717 286.722,114.126 287.187 C 113.535 287.651,112.706 288.609,112.283 289.316 C 111.859 290.022,110.980 291.129,110.328 291.776 C 107.856 294.227,107.595 296.127,109.583 297.191 C 110.071 297.452,116.684 297.600,127.845 297.600 C 140.542 297.600,145.711 297.733,146.683 298.085 L 148.023 298.569 147.912 303.367 C 147.801 308.104,147.787 308.169,146.800 308.443 C 145.544 308.791,86.233 308.798,84.600 308.449 L 83.400 308.193 83.287 303.443 C 83.200 299.792,83.305 298.542,83.740 298.046 C 84.051 297.691,84.440 296.950,84.605 296.400 C 84.770 295.850,85.556 294.662,86.352 293.761 C 89.166 290.574,91.074 288.188,91.598 287.200 C 91.890 286.650,92.552 285.750,93.069 285.200 C 96.068 282.012,97.620 280.167,97.813 279.559 C 97.933 279.181,98.474 278.581,99.016 278.227 C 99.557 277.872,100.000 277.347,100.000 277.061 C 100.000 276.775,100.990 275.397,102.200 274.000 C 103.410 272.603,104.400 271.299,104.400 271.103 C 104.400 270.907,104.985 270.140,105.700 269.398 C 107.919 267.096,109.720 264.910,110.284 263.833 C 110.582 263.265,110.998 262.800,111.208 262.800 C 111.418 262.800,112.020 262.119,112.545 261.287 C 113.070 260.455,114.242 258.978,115.150 258.005 C 116.057 257.032,116.800 255.987,116.800 255.683 C 116.800 255.158,117.379 254.479,120.948 250.821 C 122.152 249.587,122.443 249.024,122.257 248.286 C 121.803 246.476,121.021 246.400,102.861 246.400 C 90.094 246.400,85.638 246.278,85.280 245.920 C 84.594 245.234,84.612 235.743,85.300 235.464 C 85.575 235.352,99.390 235.292,116.000 235.330 L 146.200 235.400 146.318 240.400 M271.236 243.185 C 268.126 243.689,268.000 244.078,268.000 253.200 C 268.000 263.936,267.544 263.530,279.674 263.576 C 290.073 263.616,290.000 263.689,290.000 253.200 C 290.000 244.498,289.946 244.315,287.074 243.227 C 285.829 242.755,274.086 242.724,271.236 243.185 M286.720 244.880 C 287.061 245.221,287.200 247.636,287.200 253.200 C 287.200 258.764,287.061 261.179,286.720 261.520 C 286.109 262.131,274.061 262.179,271.900 261.579 L 270.400 261.162 270.400 253.193 L 270.400 245.223 271.700 244.848 C 273.703 244.269,286.136 244.296,286.720 244.880 M269.746 271.668 C 268.230 272.402,268.000 273.685,268.000 281.400 C 268.000 292.100,267.468 291.600,278.845 291.600 C 290.405 291.600,289.982 291.988,289.982 281.400 C 289.982 270.791,290.421 271.188,278.726 271.227 C 274.006 271.243,270.242 271.428,269.746 271.668 M286.567 273.043 C 287.115 273.253,287.200 274.370,287.200 281.400 C 287.200 288.430,287.115 289.547,286.567 289.757 C 285.733 290.077,273.256 290.071,271.650 289.750 L 270.400 289.500 270.400 281.378 C 270.400 273.273,270.402 273.255,271.300 273.082 C 272.726 272.808,285.866 272.774,286.567 273.043 M272.400 299.420 C 272.070 299.490,271.153 299.652,270.361 299.780 C 268.200 300.130,268.000 300.946,268.000 309.400 C 268.000 320.100,267.468 319.600,278.845 319.600 C 290.405 319.600,289.982 319.988,289.982 309.400 C 289.982 300.929,289.870 300.530,287.240 299.653 C 286.034 299.251,274.085 299.063,272.400 299.420 M286.567 301.043 C 287.115 301.253,287.200 302.370,287.200 309.400 C 287.200 316.430,287.115 317.547,286.567 317.757 C 285.733 318.077,273.256 318.071,271.650 317.750 L 270.400 317.500 270.400 309.378 C 270.400 301.273,270.402 301.255,271.300 301.082 C 272.726 300.808,285.866 300.774,286.567 301.043 " stroke="none" fill="#a4f4a3" fill-rule="evenodd"></path><path id="path2" d="M164.400 0.800 C 164.400 1.570,164.133 1.600,157.374 1.600 C 149.632 1.600,148.800 1.796,148.800 3.614 L 148.800 4.800 144.633 4.800 C 139.519 4.800,139.200 4.907,139.200 6.630 L 139.200 7.974 134.700 8.087 L 130.200 8.200 130.076 9.700 L 129.952 11.200 125.419 11.200 C 120.546 11.200,120.400 11.265,120.400 13.433 C 120.400 14.370,120.306 14.400,117.400 14.400 L 114.400 14.400 114.400 15.783 L 114.400 17.166 111.300 17.283 L 108.200 17.400 108.076 18.900 L 107.952 20.400 105.256 20.400 C 102.273 20.400,101.600 20.783,101.600 22.480 C 101.600 23.581,101.559 23.600,99.233 23.600 C 96.025 23.600,95.600 23.816,95.600 25.443 L 95.600 26.800 93.049 26.800 C 90.337 26.800,89.887 27.060,89.454 28.876 C 89.239 29.774,88.949 29.972,87.698 30.076 C 86.282 30.193,86.193 30.282,86.076 31.700 L 85.952 33.200 83.456 33.200 C 80.780 33.200,80.000 33.619,80.000 35.056 C 80.000 35.802,79.750 35.972,78.500 36.076 C 77.086 36.193,76.993 36.285,76.877 37.677 C 76.762 39.065,76.665 39.162,75.277 39.277 C 73.885 39.393,73.793 39.486,73.676 40.900 L 73.552 42.400 71.676 42.406 C 69.213 42.414,67.833 43.131,67.676 44.487 C 67.569 45.401,67.340 45.572,66.076 45.677 C 64.690 45.793,64.593 45.890,64.477 47.277 C 64.362 48.665,64.265 48.762,62.877 48.877 C 61.533 48.989,61.389 49.117,61.275 50.300 C 61.167 51.419,60.997 51.600,60.055 51.600 C 58.658 51.600,58.000 52.266,58.000 53.680 C 58.000 54.640,57.840 54.800,56.880 54.800 C 55.459 54.800,54.800 55.459,54.800 56.880 C 54.800 57.840,54.640 58.000,53.680 58.000 C 52.266 58.000,51.600 58.658,51.600 60.055 C 51.600 60.997,51.419 61.167,50.300 61.275 C 49.117 61.389,48.989 61.533,48.877 62.877 C 48.762 64.265,48.665 64.362,47.277 64.477 C 45.890 64.593,45.793 64.690,45.677 66.076 C 45.572 67.340,45.401 67.569,44.487 67.676 C 43.131 67.833,42.414 69.213,42.406 71.676 L 42.400 73.552 40.900 73.676 C 39.486 73.793,39.393 73.885,39.277 75.277 C 39.162 76.665,39.065 76.762,37.677 76.877 C 36.285 76.993,36.193 77.086,36.076 78.500 C 35.972 79.750,35.802 80.000,35.056 80.000 C 33.619 80.000,33.200 80.780,33.200 83.456 L 33.200 85.952 31.700 86.076 C 30.282 86.193,30.193 86.282,30.076 87.698 C 29.972 88.949,29.774 89.239,28.876 89.454 C 27.060 89.887,26.800 90.337,26.800 93.049 L 26.800 95.600 25.443 95.600 C 23.816 95.600,23.600 96.025,23.600 99.233 C 23.600 101.559,23.581 101.600,22.480 101.600 C 20.783 101.600,20.400 102.273,20.400 105.256 L 20.400 107.952 18.900 108.076 L 17.400 108.200 17.283 111.300 L 17.166 114.400 15.783 114.400 L 14.400 114.400 14.400 117.400 C 14.400 120.306,14.370 120.400,13.433 120.400 C 11.265 120.400,11.200 120.546,11.200 125.419 L 11.200 129.952 9.700 130.076 L 8.200 130.200 8.087 134.700 L 7.974 139.200 6.630 139.200 C 4.907 139.200,4.800 139.519,4.800 144.633 L 4.800 148.800 3.614 148.800 C 1.796 148.800,1.600 149.632,1.600 157.374 C 1.600 164.133,1.570 164.400,0.800 164.400 C 0.006 164.400,0.000 164.667,0.000 200.200 C 0.000 235.733,0.006 236.000,0.800 236.000 C 1.568 236.000,1.600 236.268,1.605 242.700 C 1.612 250.803,1.675 251.103,3.431 251.432 L 4.775 251.684 4.887 256.142 L 5.000 260.600 6.500 260.724 L 8.000 260.848 8.000 264.991 C 8.000 270.080,8.108 270.400,9.830 270.400 L 11.174 270.400 11.287 274.900 L 11.400 279.400 12.884 279.523 L 14.367 279.646 14.484 282.723 L 14.600 285.800 15.883 285.924 L 17.166 286.048 17.283 288.924 L 17.400 291.800 18.884 291.923 L 20.367 292.046 20.484 295.123 L 20.600 298.200 22.100 298.324 L 23.600 298.448 23.600 301.144 C 23.600 304.127,23.983 304.800,25.680 304.800 C 26.781 304.800,26.800 304.841,26.800 307.171 C 26.800 309.806,27.410 310.800,29.029 310.800 C 29.895 310.800,30.000 310.973,30.000 312.400 C 30.000 313.997,30.003 314.000,31.582 314.000 L 33.165 314.000 33.282 316.876 C 33.400 319.751,33.400 319.752,34.700 320.087 C 35.773 320.364,36.000 320.616,36.000 321.531 C 36.000 322.935,36.661 323.600,38.055 323.600 C 38.997 323.600,39.167 323.781,39.275 324.900 C 39.389 326.087,39.531 326.211,40.900 326.324 L 42.400 326.448 42.400 328.398 C 42.400 331.174,42.918 332.275,44.376 332.595 C 45.396 332.819,45.600 333.056,45.600 334.018 C 45.600 335.245,46.504 336.000,47.974 336.000 C 48.646 336.000,48.800 336.252,48.800 337.357 C 48.800 338.738,49.304 339.200,50.807 339.200 C 51.352 339.200,51.583 339.546,51.675 340.500 C 51.789 341.683,51.933 341.811,53.277 341.923 C 54.665 342.038,54.762 342.135,54.877 343.523 C 54.993 344.915,55.086 345.007,56.500 345.124 C 57.774 345.230,58.000 345.390,58.000 346.191 C 58.000 347.903,58.414 348.400,59.843 348.400 C 61.119 348.400,61.200 348.481,61.200 349.757 C 61.200 351.191,61.696 351.600,63.433 351.600 C 64.238 351.600,64.400 351.798,64.400 352.786 C 64.400 354.032,65.286 354.800,66.724 354.800 C 67.263 354.800,67.572 355.160,67.735 355.977 C 67.990 357.250,69.660 357.993,72.275 357.998 C 73.420 358.000,73.562 358.132,73.675 359.300 C 73.789 360.487,73.931 360.611,75.300 360.724 C 76.758 360.845,76.800 360.892,76.800 362.424 C 76.800 363.996,76.804 364.000,78.400 364.000 C 79.791 364.000,80.001 364.118,80.006 364.900 C 80.017 366.445,80.574 366.809,83.329 367.066 C 85.911 367.307,86.000 367.352,86.000 368.409 C 86.000 369.725,86.598 370.284,88.198 370.465 C 89.170 370.574,89.434 370.823,89.599 371.782 C 89.829 373.123,90.685 373.497,93.675 373.560 C 95.488 373.599,95.553 373.643,95.675 374.900 L 95.800 376.200 98.677 376.317 L 101.554 376.434 101.677 377.917 L 101.800 379.400 104.877 379.516 L 107.954 379.633 108.077 381.116 L 108.200 382.600 111.277 382.716 L 114.354 382.833 114.477 384.316 L 114.600 385.800 117.500 385.918 C 120.256 386.029,120.400 386.082,120.400 386.989 C 120.400 388.836,121.293 389.200,125.829 389.200 L 130.000 389.200 130.000 390.600 L 130.000 392.000 134.576 392.000 L 139.152 392.000 139.276 393.500 L 139.400 395.000 144.100 395.113 L 148.800 395.225 148.800 396.333 C 148.800 398.301,149.197 398.400,157.080 398.400 C 164.133 398.400,164.400 398.429,164.400 399.200 C 164.400 399.994,164.667 400.000,200.200 400.000 C 235.600 400.000,236.000 399.991,236.000 399.209 C 236.000 398.453,236.331 398.413,243.500 398.309 L 251.000 398.200 251.371 396.700 L 251.741 395.200 256.271 395.200 L 260.800 395.200 260.800 393.613 L 260.800 392.025 265.500 391.913 L 270.200 391.800 270.325 390.500 L 270.451 389.200 274.393 389.200 C 279.274 389.200,279.600 389.085,279.600 387.357 L 279.600 386.000 282.320 386.000 C 285.328 386.000,286.000 385.620,286.000 383.920 L 286.000 382.800 289.000 382.800 L 292.000 382.800 292.000 381.200 L 292.000 379.600 295.200 379.600 L 298.400 379.600 298.400 378.000 L 298.400 376.400 301.357 376.400 C 304.432 376.400,304.800 376.189,304.800 374.423 C 304.800 373.843,305.249 373.670,307.215 373.492 C 309.927 373.246,310.800 372.731,310.800 371.375 C 310.800 370.593,311.034 370.429,312.300 370.324 C 313.719 370.207,313.807 370.119,313.924 368.700 C 314.048 367.204,314.053 367.200,315.924 367.160 C 318.893 367.097,319.715 366.731,320.083 365.311 C 320.368 364.212,320.605 364.032,321.905 363.924 C 323.318 363.807,323.407 363.717,323.524 362.300 C 323.642 360.881,323.723 360.800,325.024 360.800 C 326.319 360.800,326.400 360.721,326.400 359.457 L 326.400 358.114 328.859 357.857 C 331.571 357.573,332.207 357.225,332.557 355.829 C 332.728 355.147,333.172 354.819,334.181 354.630 C 335.375 354.406,335.606 354.175,335.829 352.985 C 336.037 351.878,336.275 351.600,337.016 351.600 C 338.209 351.600,339.200 350.601,339.200 349.397 C 339.200 348.622,339.435 348.428,340.500 348.325 C 341.687 348.211,341.811 348.069,341.924 346.700 C 342.045 345.242,342.092 345.200,343.624 345.200 C 345.192 345.200,345.200 345.192,345.200 343.624 C 345.200 342.092,345.242 342.045,346.700 341.924 C 348.069 341.811,348.211 341.687,348.325 340.500 C 348.428 339.435,348.622 339.200,349.397 339.200 C 350.601 339.200,351.600 338.209,351.600 337.016 C 351.600 336.275,351.878 336.037,352.985 335.829 C 354.175 335.606,354.406 335.375,354.630 334.181 C 354.819 333.172,355.147 332.728,355.829 332.557 C 357.225 332.207,357.573 331.571,357.857 328.859 L 358.114 326.400 359.457 326.400 C 360.721 326.400,360.800 326.319,360.800 325.024 C 360.800 323.723,360.881 323.642,362.300 323.524 C 363.717 323.407,363.807 323.318,363.924 321.905 C 364.032 320.605,364.212 320.368,365.311 320.083 C 366.731 319.715,367.097 318.893,367.160 315.924 C 367.200 314.053,367.204 314.048,368.700 313.924 C 370.119 313.807,370.207 313.719,370.324 312.300 C 370.429 311.034,370.593 310.800,371.375 310.800 C 372.731 310.800,373.246 309.927,373.492 307.215 C 373.670 305.249,373.843 304.800,374.423 304.800 C 376.189 304.800,376.400 304.432,376.400 301.357 L 376.400 298.400 378.000 298.400 L 379.600 298.400 379.600 295.200 L 379.600 292.000 381.200 292.000 L 382.800 292.000 382.800 289.000 L 382.800 286.000 383.920 286.000 C 385.620 286.000,386.000 285.328,386.000 282.320 L 386.000 279.600 387.357 279.600 C 389.085 279.600,389.200 279.274,389.200 274.393 L 389.200 270.451 390.500 270.325 L 391.800 270.200 391.913 265.500 L 392.025 260.800 393.613 260.800 L 395.200 260.800 395.200 256.271 L 395.200 251.741 396.700 251.371 L 398.200 251.000 398.309 243.500 C 398.413 236.331,398.453 236.000,399.209 236.000 C 399.991 236.000,400.000 235.600,400.000 200.200 C 400.000 164.667,399.994 164.400,399.200 164.400 C 398.429 164.400,398.400 164.133,398.400 157.080 C 398.400 149.197,398.301 148.800,396.333 148.800 L 395.225 148.800 395.113 144.100 L 395.000 139.400 393.500 139.276 L 392.000 139.152 392.000 134.576 L 392.000 130.000 390.600 130.000 L 389.200 130.000 389.200 125.829 C 389.200 121.293,388.836 120.400,386.989 120.400 C 386.082 120.400,386.029 120.256,385.918 117.500 L 385.800 114.600 384.316 114.477 L 382.833 114.354 382.716 111.277 L 382.600 108.200 381.116 108.077 L 379.633 107.954 379.516 104.877 L 379.400 101.800 377.917 101.677 L 376.434 101.554 376.317 98.677 L 376.200 95.800 374.900 95.675 C 373.643 95.553,373.599 95.488,373.560 93.675 C 373.497 90.685,373.123 89.829,371.782 89.599 C 370.823 89.434,370.574 89.170,370.465 88.198 C 370.284 86.598,369.725 86.000,368.409 86.000 C 367.352 86.000,367.307 85.911,367.066 83.329 C 366.809 80.574,366.445 80.017,364.900 80.006 C 364.118 80.001,364.000 79.791,364.000 78.400 C 364.000 76.804,363.996 76.800,362.424 76.800 C 360.892 76.800,360.845 76.758,360.724 75.300 C 360.611 73.931,360.487 73.789,359.300 73.675 C 358.132 73.562,358.000 73.420,357.998 72.275 C 357.993 69.660,357.250 67.990,355.977 67.735 C 355.160 67.572,354.800 67.263,354.800 66.724 C 354.800 65.286,354.032 64.400,352.786 64.400 C 351.798 64.400,351.600 64.238,351.600 63.433 C 351.600 61.696,351.191 61.200,349.757 61.200 C 348.481 61.200,348.400 61.119,348.400 59.843 C 348.400 58.414,347.903 58.000,346.191 58.000 C 345.390 58.000,345.230 57.774,345.124 56.500 C 345.007 55.086,344.915 54.993,343.523 54.877 C 342.135 54.762,342.038 54.665,341.923 53.277 C 341.811 51.933,341.683 51.789,340.500 51.675 C 339.546 51.583,339.200 51.352,339.200 50.807 C 339.200 49.304,338.738 48.800,337.357 48.800 C 336.252 48.800,336.000 48.646,336.000 47.974 C 336.000 46.504,335.245 45.600,334.018 45.600 C 333.056 45.600,332.819 45.396,332.595 44.376 C 332.275 42.918,331.174 42.400,328.398 42.400 L 326.448 42.400 326.324 40.900 C 326.211 39.531,326.087 39.389,324.900 39.275 C 323.781 39.167,323.600 38.997,323.600 38.055 C 323.600 36.661,322.935 36.000,321.531 36.000 C 320.616 36.000,320.364 35.773,320.087 34.700 C 319.752 33.400,319.751 33.400,316.876 33.282 L 314.000 33.165 314.000 31.582 C 314.000 30.003,313.997 30.000,312.400 30.000 C 310.973 30.000,310.800 29.895,310.800 29.029 C 310.800 27.410,309.806 26.800,307.171 26.800 C 304.841 26.800,304.800 26.781,304.800 25.680 C 304.800 23.983,304.127 23.600,301.144 23.600 L 298.448 23.600 298.324 22.100 L 298.200 20.600 295.123 20.484 L 292.046 20.367 291.923 18.884 L 291.800 17.400 288.924 17.283 L 286.048 17.166 285.924 15.883 L 285.800 14.600 282.723 14.484 L 279.646 14.367 279.523 12.884 L 279.400 11.400 274.900 11.287 L 270.400 11.174 270.400 9.830 C 270.400 8.108,270.080 8.000,264.991 8.000 L 260.848 8.000 260.724 6.500 L 260.600 5.000 256.142 4.887 L 251.684 4.775 251.432 3.431 C 251.103 1.675,250.803 1.612,242.700 1.605 C 236.268 1.600,236.000 1.568,236.000 0.800 C 236.000 0.006,235.733 0.000,200.200 0.000 C 164.667 0.000,164.400 0.006,164.400 0.800 M202.254 18.983 C 202.712 19.304,203.475 20.469,203.950 21.573 C 204.425 22.676,205.185 23.778,205.640 24.022 C 206.095 24.265,206.722 25.073,207.033 25.818 C 207.344 26.562,207.958 27.364,208.398 27.599 C 208.838 27.834,209.545 28.707,209.969 29.539 C 210.393 30.371,211.282 31.632,211.944 32.340 C 212.606 33.048,213.344 34.225,213.585 34.955 C 213.826 35.685,214.450 36.477,214.972 36.714 C 215.508 36.959,216.120 37.752,216.380 38.541 C 216.633 39.307,217.279 40.222,217.815 40.573 C 218.351 40.924,219.141 41.884,219.571 42.706 C 220.000 43.528,220.828 44.740,221.411 45.400 C 221.993 46.060,222.699 47.148,222.980 47.818 C 223.261 48.488,223.965 49.347,224.545 49.727 C 225.902 50.616,226.037 53.163,224.794 54.406 C 224.042 55.158,223.660 55.194,219.058 54.948 L 214.127 54.685 213.264 56.469 L 212.400 58.253 212.400 122.001 L 212.400 185.748 213.270 186.674 L 214.139 187.600 274.990 187.600 C 321.784 187.600,335.951 187.489,336.320 187.120 C 336.626 186.814,336.801 185.255,336.802 182.820 C 336.807 174.470,339.203 173.017,344.800 177.971 C 346.230 179.236,348.147 180.742,349.060 181.316 C 349.973 181.890,350.783 182.504,350.860 182.680 C 350.937 182.856,351.630 183.317,352.400 183.704 C 354.045 184.532,356.829 186.640,358.800 188.550 C 359.570 189.297,360.920 190.298,361.800 190.774 C 364.801 192.401,366.286 193.399,367.961 194.915 C 368.882 195.748,370.275 196.735,371.057 197.108 C 374.760 198.873,374.634 204.429,370.847 206.385 C 370.051 206.797,368.459 207.913,367.308 208.867 C 363.519 212.006,361.919 213.200,361.501 213.200 C 361.275 213.200,360.330 213.875,359.403 214.700 C 358.475 215.525,356.674 217.010,355.400 218.000 C 354.126 218.990,352.325 220.475,351.397 221.300 C 350.470 222.125,349.574 222.800,349.408 222.800 C 349.242 222.800,348.491 223.340,347.739 224.000 C 346.987 224.660,346.138 225.200,345.852 225.200 C 345.565 225.200,344.685 225.920,343.895 226.800 C 342.589 228.255,342.280 228.400,340.491 228.400 C 337.239 228.400,337.054 227.980,336.808 219.999 C 336.694 216.295,336.450 213.115,336.267 212.932 C 336.083 212.749,308.560 212.551,275.103 212.490 L 214.273 212.380 213.336 213.260 L 212.400 214.139 212.401 276.570 C 212.401 335.205,212.444 339.085,213.101 340.400 L 213.800 341.800 218.935 341.800 C 225.813 341.800,227.856 344.118,224.200 347.773 C 223.430 348.543,222.800 349.359,222.800 349.586 C 222.800 349.812,222.171 350.694,221.402 351.545 C 220.633 352.396,219.732 353.743,219.400 354.538 C 219.068 355.334,218.360 356.270,217.828 356.619 C 217.295 356.967,216.680 357.768,216.461 358.397 C 216.242 359.026,215.607 359.839,215.051 360.203 C 214.495 360.567,213.841 361.469,213.598 362.207 C 213.354 362.944,212.445 364.325,211.578 365.274 C 210.710 366.223,210.000 367.209,210.000 367.464 C 210.000 367.720,209.471 368.374,208.825 368.918 C 208.179 369.461,207.384 370.543,207.059 371.321 C 206.734 372.099,206.100 372.932,205.650 373.173 C 205.201 373.414,204.494 374.377,204.079 375.314 C 202.121 379.740,198.213 379.719,196.163 375.270 C 195.743 374.360,195.068 373.504,194.663 373.369 C 194.258 373.233,193.625 372.465,193.257 371.661 C 192.642 370.317,191.819 369.293,188.955 366.301 C 188.376 365.697,187.409 364.437,186.806 363.501 C 186.203 362.566,185.304 361.350,184.808 360.800 C 184.312 360.250,183.734 359.317,183.523 358.726 C 183.312 358.136,182.713 357.373,182.191 357.031 C 181.669 356.689,180.945 355.784,180.582 355.019 C 180.220 354.255,179.577 353.520,179.155 353.386 C 178.732 353.252,178.031 352.445,177.596 351.592 C 177.161 350.740,176.534 349.891,176.202 349.705 C 175.257 349.177,173.999 346.376,174.006 344.815 C 174.017 342.284,174.180 342.214,180.349 342.070 C 185.356 341.954,186.005 341.857,186.665 341.128 C 187.371 340.348,187.404 337.822,187.504 277.288 L 187.607 214.259 186.725 213.321 L 185.843 212.382 120.307 212.491 C 62.567 212.587,54.726 212.671,54.391 213.200 C 54.183 213.530,54.008 216.140,54.004 219.000 C 53.989 228.127,51.998 230.225,47.103 226.270 C 41.155 221.463,37.849 219.004,35.048 217.300 C 34.415 216.915,33.065 215.822,32.048 214.872 C 31.032 213.922,29.660 212.888,29.000 212.574 C 28.340 212.260,26.720 211.196,25.400 210.209 C 24.080 209.221,22.190 207.880,21.200 207.228 C 17.952 205.089,17.759 204.895,17.207 203.220 C 16.425 200.853,17.565 198.571,20.484 196.660 C 21.648 195.898,23.140 194.760,23.800 194.132 C 25.090 192.904,26.447 191.910,28.717 190.530 C 29.504 190.051,30.790 189.109,31.574 188.436 C 36.389 184.303,37.767 183.200,38.114 183.200 C 38.487 183.200,39.898 182.093,43.084 179.300 C 43.899 178.585,44.770 178.000,45.018 178.000 C 45.266 178.000,46.115 177.280,46.905 176.400 C 48.211 174.945,48.520 174.800,50.309 174.800 C 53.413 174.800,53.731 175.392,53.928 181.523 C 54.017 184.315,54.272 186.825,54.494 187.100 C 55.202 187.976,185.898 187.816,186.869 186.938 C 188.023 185.893,188.008 58.549,186.853 56.394 L 186.106 55.000 180.580 54.888 C 174.390 54.763,174.000 54.610,174.000 52.305 C 174.000 50.783,175.391 47.600,176.057 47.600 C 176.227 47.600,176.819 46.827,177.372 45.883 C 177.926 44.939,178.923 43.763,179.589 43.271 C 180.255 42.779,180.800 42.117,180.800 41.800 C 180.800 41.483,181.326 40.835,181.970 40.359 C 182.613 39.883,183.248 39.063,183.380 38.537 C 183.512 38.011,184.213 36.909,184.938 36.090 C 185.662 35.270,186.664 33.923,187.163 33.095 C 187.663 32.267,188.431 31.398,188.870 31.163 C 189.309 30.928,189.922 30.127,190.233 29.382 C 190.544 28.638,191.174 27.828,191.633 27.582 C 192.092 27.337,192.727 26.514,193.045 25.754 C 193.362 24.994,194.024 24.190,194.515 23.966 C 195.005 23.743,195.730 22.777,196.126 21.822 C 197.163 19.315,198.012 18.704,200.811 18.454 C 201.147 18.425,201.797 18.662,202.254 18.983 M261.726 84.039 C 262.255 84.280,262.984 85.096,263.344 85.851 C 263.704 86.607,264.277 87.331,264.616 87.462 C 265.297 87.723,266.800 90.416,266.800 91.375 C 266.800 91.709,267.241 92.270,267.780 92.624 C 268.319 92.977,268.968 93.896,269.222 94.668 C 269.477 95.439,270.201 96.529,270.831 97.090 C 271.461 97.652,272.288 98.941,272.670 99.956 C 273.052 100.970,273.702 102.046,274.116 102.347 C 274.530 102.647,275.211 103.693,275.630 104.670 C 276.731 107.240,279.336 107.166,280.603 104.529 C 281.045 103.610,281.788 102.440,282.255 101.929 C 282.722 101.418,283.344 100.319,283.637 99.487 C 283.930 98.655,284.745 97.450,285.448 96.811 C 286.151 96.171,286.841 95.122,286.982 94.480 C 287.124 93.838,287.770 92.769,288.420 92.104 C 289.069 91.440,289.887 90.200,290.237 89.348 C 290.587 88.497,291.305 87.350,291.833 86.800 C 292.361 86.250,293.236 85.305,293.778 84.700 L 294.764 83.600 304.800 83.600 L 314.836 83.600 315.818 84.582 C 316.358 85.122,316.800 85.740,316.800 85.956 C 316.800 86.853,315.896 88.613,314.785 89.878 C 314.132 90.622,313.353 91.816,313.054 92.533 C 312.754 93.250,312.068 94.125,311.530 94.478 C 310.991 94.831,310.341 95.813,310.086 96.660 C 309.830 97.507,309.183 98.669,308.648 99.242 C 308.113 99.815,307.298 101.024,306.837 101.928 C 306.375 102.833,305.652 103.758,305.231 103.984 C 304.809 104.209,304.244 105.070,303.976 105.897 C 303.707 106.724,302.887 108.071,302.153 108.891 C 301.419 109.711,300.559 111.002,300.243 111.759 C 299.927 112.516,299.316 113.324,298.887 113.554 C 298.457 113.783,297.998 114.511,297.866 115.170 C 297.734 115.829,297.011 117.051,296.259 117.884 C 295.507 118.718,294.626 120.038,294.300 120.818 C 293.975 121.598,293.257 122.533,292.703 122.895 C 292.090 123.297,291.597 124.093,291.439 124.935 C 291.296 125.694,290.644 126.989,289.990 127.813 L 288.800 129.310 288.800 143.855 C 288.800 162.224,290.014 160.540,276.928 160.326 C 269.859 160.210,269.167 160.134,268.128 159.357 L 267.000 158.514 266.800 143.957 L 266.600 129.400 265.435 126.607 C 264.795 125.070,263.863 123.492,263.364 123.100 C 262.866 122.708,262.252 121.763,262.000 121.000 C 261.748 120.237,261.149 119.295,260.669 118.906 C 259.601 118.042,258.400 116.225,258.400 115.473 C 258.400 115.168,257.860 114.354,257.200 113.663 C 256.540 112.972,256.000 112.142,256.000 111.817 C 256.000 111.492,255.183 110.306,254.184 109.182 C 253.185 108.057,252.264 106.618,252.137 105.983 C 252.010 105.349,251.477 104.549,250.953 104.206 C 250.429 103.863,250.000 103.388,250.000 103.151 C 250.000 102.227,248.678 100.000,248.129 100.000 C 247.805 100.000,247.041 98.878,246.394 97.450 C 245.758 96.047,244.951 94.790,244.601 94.656 C 244.250 94.521,243.718 93.824,243.417 93.106 C 243.116 92.388,242.394 91.260,241.814 90.600 C 239.515 87.988,239.079 85.668,240.654 84.429 C 241.879 83.466,259.742 83.135,261.726 84.039 M106.027 87.700 C 108.325 90.292,109.575 91.960,110.318 93.427 C 110.771 94.321,111.449 95.309,111.825 95.621 C 112.202 95.933,112.846 96.973,113.257 97.932 C 113.672 98.900,114.344 99.765,114.769 99.876 C 115.207 99.991,115.884 100.889,116.352 101.976 C 116.801 103.021,117.475 104.129,117.850 104.438 C 118.224 104.747,118.869 105.765,119.284 106.700 C 119.698 107.635,120.206 108.400,120.412 108.400 C 121.084 108.400,124.293 105.025,124.595 104.000 C 124.757 103.450,125.300 102.550,125.801 102.000 C 126.302 101.450,127.074 100.280,127.517 99.400 C 127.960 98.520,128.791 97.395,129.364 96.900 C 129.938 96.405,130.692 95.286,131.041 94.415 C 131.389 93.543,131.997 92.728,132.390 92.603 C 132.783 92.478,133.209 91.887,133.337 91.288 C 134.201 87.236,135.521 86.805,147.094 86.802 L 155.987 86.800 157.234 87.914 L 158.480 89.028 157.400 91.014 C 156.805 92.106,155.806 93.450,155.178 94.000 C 154.551 94.550,153.920 95.498,153.774 96.106 C 153.629 96.715,153.101 97.534,152.602 97.927 C 152.103 98.320,151.242 99.532,150.690 100.621 C 150.138 101.709,149.288 102.960,148.800 103.400 C 148.313 103.840,147.647 104.868,147.320 105.685 C 146.993 106.502,146.405 107.272,146.013 107.396 C 145.621 107.520,145.003 108.400,144.640 109.351 C 144.277 110.302,143.525 111.507,142.969 112.029 C 142.413 112.551,141.611 113.764,141.186 114.725 C 140.761 115.685,140.074 116.560,139.660 116.668 C 139.205 116.787,138.719 117.494,138.430 118.458 C 138.168 119.333,137.310 120.761,136.525 121.631 C 134.795 123.545,134.796 125.977,136.527 127.398 C 137.065 127.839,137.820 128.823,138.206 129.585 C 138.593 130.347,139.418 131.479,140.040 132.102 C 140.662 132.724,141.333 133.816,141.529 134.529 C 141.726 135.243,142.453 136.391,143.144 137.082 C 143.835 137.773,144.400 138.608,144.400 138.937 C 144.400 139.266,145.014 140.114,145.763 140.821 C 146.513 141.528,147.453 142.848,147.852 143.753 C 148.251 144.659,148.821 145.551,149.118 145.737 C 149.416 145.922,149.995 146.854,150.404 147.808 C 150.813 148.763,151.520 149.743,151.976 149.987 C 152.431 150.231,153.345 151.503,154.008 152.815 C 154.670 154.127,155.398 155.200,155.626 155.200 C 155.854 155.200,156.318 155.875,156.657 156.700 C 156.995 157.525,157.820 158.773,158.489 159.474 C 161.319 162.437,159.134 163.364,148.901 163.541 C 137.860 163.733,136.232 163.158,133.683 158.163 C 133.244 157.303,132.531 156.280,132.098 155.888 C 131.665 155.497,130.975 154.417,130.564 153.488 C 130.154 152.560,129.493 151.561,129.096 151.268 C 128.699 150.976,128.004 149.948,127.550 148.984 C 127.097 148.019,126.428 147.133,126.063 147.015 C 125.698 146.896,124.917 145.758,124.326 144.486 C 123.491 142.687,122.921 142.015,121.764 141.463 C 120.152 140.695,120.176 140.683,118.981 142.888 C 118.657 143.487,118.048 144.160,117.628 144.385 C 117.209 144.610,116.742 145.355,116.591 146.042 C 116.440 146.728,115.730 147.945,115.013 148.745 C 114.296 149.545,113.420 150.766,113.066 151.458 C 112.713 152.149,111.878 153.260,111.212 153.927 C 110.545 154.593,110.000 155.416,110.000 155.755 C 110.000 156.095,109.459 156.988,108.799 157.740 C 108.138 158.493,107.327 159.756,106.997 160.546 C 105.845 163.302,105.418 163.400,94.561 163.400 C 83.968 163.400,83.200 163.232,83.200 160.922 C 83.200 159.561,84.582 157.035,85.741 156.275 C 86.284 155.919,86.939 154.991,87.196 154.211 C 87.454 153.432,88.010 152.609,88.433 152.383 C 88.855 152.156,89.479 151.303,89.819 150.486 C 90.158 149.669,90.940 148.370,91.556 147.600 C 92.172 146.830,92.978 145.617,93.347 144.904 C 93.715 144.191,94.452 143.323,94.983 142.974 C 95.514 142.626,96.058 141.848,96.190 141.244 C 96.323 140.641,97.146 139.282,98.020 138.225 C 98.894 137.167,99.717 135.872,99.849 135.346 C 99.981 134.821,100.589 134.035,101.200 133.600 C 101.811 133.165,102.434 132.312,102.583 131.704 C 102.733 131.097,103.403 130.030,104.073 129.334 C 105.821 127.517,106.877 124.152,106.149 122.720 C 105.847 122.126,105.600 121.366,105.600 121.032 C 105.600 120.697,105.062 120.026,104.404 119.540 C 103.746 119.053,103.105 118.332,102.980 117.937 C 102.854 117.541,102.136 116.481,101.383 115.580 C 100.631 114.679,99.804 113.238,99.546 112.377 C 99.288 111.516,98.657 110.536,98.144 110.200 C 97.630 109.863,96.840 108.862,96.387 107.975 C 95.934 107.087,95.307 106.262,94.992 106.142 C 94.678 106.021,93.929 104.905,93.327 103.661 C 92.725 102.418,91.908 101.163,91.511 100.873 C 91.113 100.584,90.517 99.698,90.186 98.905 C 89.855 98.113,89.208 97.201,88.749 96.879 C 88.290 96.558,87.495 95.389,86.982 94.282 C 86.469 93.175,85.604 91.894,85.059 91.435 C 83.532 90.147,83.372 88.992,84.557 87.807 L 85.564 86.800 95.396 86.800 C 105.090 86.800,105.240 86.813,106.027 87.700 M147.418 234.582 C 149.568 236.732,148.590 248.404,146.101 250.303 C 145.362 250.866,144.514 251.911,144.215 252.625 C 143.917 253.339,143.297 254.042,142.837 254.188 C 142.378 254.334,141.885 254.936,141.742 255.527 C 141.600 256.117,140.834 257.342,140.041 258.248 C 136.220 262.617,134.800 264.377,134.800 264.744 C 134.800 264.965,134.256 265.533,133.591 266.006 C 132.927 266.479,132.133 267.464,131.828 268.195 C 131.523 268.925,130.912 269.638,130.470 269.778 C 130.028 269.918,129.491 270.538,129.275 271.156 C 129.060 271.774,128.100 273.193,127.142 274.311 C 123.629 278.409,122.400 279.942,122.400 280.229 C 122.400 280.391,121.725 281.217,120.900 282.065 C 117.338 285.728,116.800 286.361,116.800 286.889 C 116.800 287.447,114.597 290.241,111.548 293.549 C 110.662 294.510,110.086 295.446,110.269 295.627 C 110.451 295.808,118.970 296.012,129.200 296.078 C 152.380 296.230,150.390 295.523,150.388 303.600 C 150.387 310.898,153.850 310.174,118.200 310.326 C 85.258 310.467,83.152 310.389,81.742 308.979 C 79.863 307.099,80.543 297.047,82.628 295.880 C 82.943 295.704,83.200 295.211,83.200 294.784 C 83.200 294.091,84.949 291.846,88.372 288.145 C 89.011 287.455,90.001 286.150,90.572 285.245 C 91.143 284.340,91.784 283.600,91.997 283.600 C 92.210 283.600,92.744 282.893,93.185 282.029 C 93.626 281.165,94.332 280.349,94.754 280.215 C 95.175 280.081,95.623 279.562,95.749 279.061 C 95.964 278.203,98.723 274.650,100.940 272.373 C 101.490 271.809,102.327 270.692,102.799 269.891 C 103.272 269.091,103.973 268.336,104.357 268.214 C 104.741 268.092,105.351 267.373,105.712 266.616 C 106.073 265.859,106.825 264.940,107.384 264.574 C 107.943 264.208,108.400 263.603,108.400 263.230 C 108.400 262.477,111.011 259.231,116.512 253.145 C 117.123 252.469,117.890 251.400,118.216 250.769 C 118.542 250.139,119.207 249.410,119.695 249.149 C 121.449 248.210,119.097 248.056,102.560 248.028 C 85.061 247.998,83.838 247.878,83.171 246.125 C 82.288 243.802,82.720 235.644,83.782 234.582 L 84.764 233.600 115.600 233.600 L 146.436 233.600 147.418 234.582 M287.074 243.227 C 289.946 244.315,290.000 244.498,290.000 253.200 C 290.000 263.689,290.073 263.616,279.674 263.576 C 267.544 263.530,268.000 263.936,268.000 253.200 C 268.000 244.078,268.126 243.689,271.236 243.185 C 274.086 242.724,285.829 242.755,287.074 243.227 M287.726 271.647 C 289.870 272.743,289.982 273.229,289.982 281.400 C 289.982 291.988,290.405 291.600,278.845 291.600 C 267.468 291.600,268.000 292.100,268.000 281.400 C 268.000 273.685,268.230 272.402,269.746 271.668 C 270.946 271.087,286.595 271.069,287.726 271.647 M287.240 299.653 C 289.870 300.530,289.982 300.929,289.982 309.400 C 289.982 319.988,290.405 319.600,278.845 319.600 C 267.468 319.600,268.000 320.100,268.000 309.400 C 268.000 300.946,268.200 300.130,270.361 299.780 C 271.153 299.652,272.070 299.490,272.400 299.420 C 274.085 299.063,286.034 299.251,287.240 299.653 " stroke="none" fill="#5cec4c" fill-rule="evenodd"></path></g></svg>